<svg version="1.2" xmlns="http://www.w3.org/2000/svg" viewBox="0 0 1500 1000" width="1500" height="1000">
	<title>Watching Movie in the cinema (Isolated)-ai</title>
	<style>
		tspan { white-space:pre } 
		.s0 { fill: #4c0c12 } 
		.s1 { fill: #661920 } 
		.s2 { fill: #b23c3e } 
		.s3 { fill: #962a30 } 
		.s4 { fill: #1c293f } 
		.s5 { fill: #3397db } 
		.s6 { fill: #1a87c4 } 
		.s7 { fill: #6bc5f7 } 
		.s8 { fill: #ffffff } 
		.s9 { fill: #ffd16c } 
		.s10 { fill: #edb545 } 
		.s11 { fill: #28344f } 
		.s12 { fill: #ff9061 } 
		.s13 { fill: #e75d47 } 
		.s14 { fill: #ffa585 } 
		.t15 { font-size: 14px;fill: #152745;font-weight: 700;font-family: "Montserrat-Bold", "Montserrat" } 
		.t16 { font-size: 12px;fill: #152745;font-weight: 500;font-family: "Montserrat-Medium", "Montserrat" } 
	</style>
	<g id="BACKGROUND">
		<g id="&lt;Group&gt;">
			<path id="&lt;Path&gt;" class="s0" d="m1274.6 465.1c-0.1 46.1-1.9 94.4-6.1 144.5-2.7 32.5-6.3 63.9-10.4 94.1-11.5 83.2-78.6 147.6-162.2 155.5-19.6 1.9-39.5 3.6-59.6 5.2q-0.2 0-0.3 0-25.5 2.1-51.6 3.8-0.9 0-1.7 0.1-18.6 1.2-37.6 2.3-10.9 0.6-22 1.2c-10 0.5-20 1-30.1 1.5-42 1.8-85.1 3.1-129 3.6h-0.3q-23.7 0.3-47 0.4-54.3 0-106.6-1.3-27-0.7-53.4-1.7-13.1-0.5-26-1.1-17.2-0.7-34.2-1.6-0.6-0.1-1.2-0.1-8.1-0.4-16.1-0.9-17.6-1-34.9-2.1-16-1.1-31.7-2.2c-85.5-6.3-154.9-71.7-166.1-156.7q-3.2-24.7-5.8-50.3c-6.7-68.1-8.6-133-7-194.2 0.7-26.9 2-53.1 4-78.6q1.8-24.4 4.3-47.9 1.6-15.1 3.4-29.7c2.2-17.4 6.8-33.9 13.5-49.4 26-60.3 83.7-103.2 151.8-108.6 114-9 238.3-13.7 371.4-11.1 115.9 2.2 224.7 9.7 325.6 20.4 63.1 6.7 116.3 45.3 143.2 99.3 10.1 20.2 16.5 42.6 18.3 66.2q0.5 6.4 1 12.9 1.5 22.1 2.6 45.2c1.2 26.3 1.8 53.4 1.8 81.3z"/>
			<path id="&lt;Path&gt;" class="s1" d="m673.6 377.6c-1.6-32.2-12-61.1-27.9-82.4v-42.1-10.3c0-31.6-19.2-57.2-42.8-57.2h-197.9c-23.7 0-42.8 25.6-42.8 57.2v13.7 38c-16.2 21.4-26.9 50.5-28.5 83.1l-21.1 424h382.1z"/>
			<path id="&lt;Path&gt;" class="s1" d="m1159.3 377.6c-1.7-32.2-12.1-61.1-28-82.4v-42.1-10.3c0-31.6-19.1-57.2-42.8-57.2h-197.9c-23.6 0-42.8 25.6-42.8 57.2v13.7 38c-16.2 21.4-26.8 50.5-28.5 83.1l-21.1 424h382.2z"/>
			<path id="&lt;Path&gt;" class="s2" d="m984.4 868.2q-0.9 0-1.7 0.1-29.4 2-59.6 3.5c-10 0.5-20 1-30.1 1.5-42 1.8-85.1 3.1-129 3.6h-0.3q-23.7 0.3-47 0.4-54.3 0-106.6-1.3-27-0.7-53.4-1.7-30.5-1.1-60.2-2.7-0.6-0.1-1.2-0.1l9.2-157.2 14.3-242.9c4.4-74.7 59.2-132.8 125.3-132.8h191.6c66.2 0 120.9 58.1 125.3 132.8l13.9 235.2z"/>
			<g id="&lt;Group&gt;">
				<path id="&lt;Path&gt;" class="s3" d="m947.2 782.7c-0.1-2.3-15.9-224.5-21.4-294.8-2.9-36.2-18.7-59.8-31.4-73.3-13.7-14.5-26.8-20.6-27-20.7l1.7-3.6c0.6 0.3 14 6.5 28.3 21.6 13.1 13.9 29.4 38.4 32.4 75.7 5.5 70.3 21.3 292.5 21.4 294.8z"/>
			</g>
			<g id="&lt;Group&gt;">
				<path id="&lt;Path&gt;" class="s3" d="m530.9 782.7c0.1-2.3 15.8-224.5 21.4-294.8 2.9-36.2 18.6-59.8 31.3-73.3 13.8-14.5 26.9-20.6 27-20.7l-1.6-3.6c-0.6 0.3-14 6.5-28.3 21.6-13.1 13.9-29.4 38.4-32.4 75.7-5.5 70.3-21.3 292.5-21.4 294.8z"/>
			</g>
			<path id="&lt;Path&gt;" class="s3" d="m984.4 868.2q-0.9 0-1.7 0.1-29.4 2-59.6 3.5c-10 0.5-20 1-30.1 1.5-42 1.8-85.1 3.1-129 3.6h-0.3q-23.7 0.3-47 0.4-54.3 0-106.6-1.3-27-0.7-53.4-1.7-30.5-1.1-60.2-2.7-0.6-0.1-1.2-0.1l9.2-157.2c70.5 36.5 237.1 93.9 470.4-7.7z"/>
			<path id="&lt;Path&gt;" class="s2" d="m924.7 322.6v79.4c0 34.8-24.9 63.1-55.7 63.1h-257.4c-30.8 0-55.7-28.3-55.7-63.1v-79.4c0-34.8 24.9-63.1 55.7-63.1h257.4c30.8 0 55.7 28.3 55.7 63.1z"/>
			<path id="&lt;Path&gt;" class="s3" d="m924.7 334v68c0 34.8-24.9 63.1-55.7 63.1h-257.4c-30.8 0-55.7-28.3-55.7-63.1v-64.2c23.1 21.8 72.6 48.8 176 48.8 104.3 0 162.7-29.2 192.8-52.6z"/>
			<g id="&lt;Group&gt;">
				<path id="&lt;Path&gt;" class="s2" d="m1274.6 465.1c-0.1 46.1-1.9 94.4-6.1 144.5-2.7 32.5-6.3 63.9-10.4 94.1-7.5 54.1-38.5 100.3-82.2 128.1-23.5 15-50.7 24.7-80 27.4q-29.6 2.8-59.9 5.2-26.3 2.1-53.3 3.9l8.8-148.9 14.5-248c2.2-36 16-68.1 37.1-91.7 7.9-8.9 16.9-16.6 26.7-22.8 18.2-11.7 39.2-18.3 61.6-18.3h138.8q1.5 22.1 2.6 45.2c1.2 26.3 1.8 53.4 1.8 81.3z"/>
				<path id="&lt;Path&gt;" class="s2" d="m1274.6 465.1h-175.8c-30.8 0-55.7-28.3-55.7-63.1v-79.4c0-34.8 24.9-63.1 55.7-63.1h152.1c10.1 20.2 16.5 42.6 18.3 66.2q0.5 6.4 1 12.9 1.5 22.1 2.6 45.2c1.2 26.3 1.8 53.4 1.8 81.3z"/>
				<path id="&lt;Path&gt;" class="s3" d="m1274.6 465.1h-175.8c-30.8 0-55.7-28.3-55.7-63.1v-64.2c6.6 6.2 15.3 12.8 26.7 19.1 28.8 15.8 75.3 29.7 149.4 29.7 19.4 0 37.2-1 53.6-2.8 1.2 26.3 1.8 53.4 1.8 81.3z"/>
				<path id="&lt;Path&gt;" class="s3" d="m1175.9 831.8c-23.5 15-50.7 24.7-80 27.4q-29.6 2.8-59.9 5.2-26.3 2.1-53.3 3.9l8.8-148.9c30.3 37.4 95.9 103.9 184.4 112.4z"/>
				<g id="&lt;Group&gt;">
					<path id="&lt;Path&gt;" class="s3" d="m1027.2 782.7c0.2-2.3 15.9-224.5 21.5-294.8 2.9-36.2 18.6-59.8 31.3-73.3 13.8-14.5 26.9-20.6 27-20.7l-1.6-3.6c-0.6 0.3-14 6.5-28.3 21.6-13.1 13.9-29.4 38.4-32.4 75.7-5.6 70.3-21.3 292.5-21.4 294.8z"/>
				</g>
			</g>
			<g id="&lt;Group&gt;">
				<path id="&lt;Path&gt;" class="s2" d="m496.5 871.6q-8.7-0.5-17.3-1c-22.5-1.2-44.7-2.7-66.6-4.3-45-3.3-85.5-23-115.5-53.3-26.9-27.3-45.3-63.2-50.6-103.4q-3.3-24.7-5.8-50.3c-6.7-68.1-8.6-133-7-194.2 0.7-26.9 2-53.1 4-78.6q1.8-24.4 4.3-47.9h105.7c20.4 0 39.8 5.5 57 15.5 11.8 6.8 22.6 15.7 31.9 26.4 20.8 23.5 34.3 55.3 36.4 90.9l14 238.8z"/>
				<path id="&lt;Path&gt;" class="s2" d="m436.6 322.6v79.4c0 34.8-24.9 63.1-55.7 63.1h-147.2c0.7-26.9 2-53.1 4-78.6q1.8-24.4 4.3-47.9 1.6-15.1 3.4-29.7c2.2-17.4 6.8-33.9 13.5-49.4h122c30.8 0 55.7 28.3 55.7 63.1z"/>
				<path id="&lt;Path&gt;" class="s3" d="m436.6 334v68c0 34.8-24.9 63.1-55.7 63.1h-147.2c0.7-26.9 2-53.1 4-78.6q3.1 0.1 6.2 0.1c75.3 0 126.7-15.3 160.8-32.5 13.1-6.7 23.6-13.6 31.9-20.1z"/>
				<path id="&lt;Path&gt;" class="s3" d="m496.5 871.6q-8.7-0.5-17.3-1c-22.5-1.2-44.7-2.7-66.6-4.3-45-3.3-85.5-23-115.5-53.3 47.6 4.1 133.3-4.3 189.9-102.8z"/>
				<g id="&lt;Group&gt;">
					<path id="&lt;Path&gt;" class="s3" d="m447.7 811.9c-0.2-2.2-15.9-224.4-21.5-294.7-2.9-36.2-18.6-59.8-31.3-73.3-13.7-14.6-26.9-20.6-27-20.7l1.6-3.6c0.6 0.2 14 6.4 28.3 21.6 13.1 13.9 29.4 38.3 32.4 75.7 5.6 70.3 21.3 292.5 21.5 294.8z"/>
				</g>
			</g>
			<path id="&lt;Path&gt;" class="s2" d="m550.1 782v78.4c0 5.6-2.8 10.6-7.1 13.6q-17.2-0.8-34.1-1.7-0.7 0-1.3-0.1-8.1-0.4-16.1-0.9-17.5-1-34.9-2.1c-1.6-2.6-2.5-5.6-2.5-8.8v-78.4c0-9.1 7.4-16.5 16.5-16.5h63c9.1 0 16.5 7.4 16.5 16.5z"/>
			<path id="&lt;Path&gt;" class="s2" d="m1049.3 782v78.4q0 2.5-0.7 4.7-0.1 0-0.3 0-25.5 2.1-51.6 3.8-0.8 0.1-1.6 0.1-18.7 1.2-37.7 2.3c-2.5-2.9-4.1-6.7-4.1-10.9v-78.4c0-9.1 7.4-16.5 16.5-16.5h63c9.1 0 16.5 7.4 16.5 16.5z"/>
		</g>
	</g>
	<g id="FOREGROUND">
		<g id="&lt;Group&gt;">
			<path id="&lt;Path&gt;" class="s4" d="m919.1 870.9c0 0-9.7 1-26.1 2.4-42 1.8-85.1 3.1-129 3.6h-0.3q-23.7 0.3-47 0.4-54.4 0-106.6-1.3c-11.7-1.4-22.7-3.1-32.8-5.1-3.9-24.3 1-57.4 5-77.7 2.2-11 4-18.3 4-18.3 0 0 301.9-23.4 313.2-3.1 4 7.1 7.6 21.3 10.5 36.8 5.6 28.9 9.1 62.3 9.1 62.3z"/>
			<path id="&lt;Path&gt;" class="s4" d="m617.9 462.1c0 0-56.4 23.3-123.1 213 57.6 23.8 108.5-12.4 108.5-12.4 0 0 44-158.5 14.6-200.6z"/>
			<path id="&lt;Path&gt;" class="s4" d="m867.2 460.6c0 0 55.2 24.8 121.9 214.5-57.6 23.8-108.5-12.4-108.5-12.4 0 0-42.8-160-13.4-202.1z"/>
			<path id="&lt;Path&gt;" class="s5" d="m914.4 777.8c0 0-184.6 71.2-337.1-3.6 0.3-48.9 2.3-90.9 5.3-126.9 11-135.7 35.3-184.4 35.3-184.4 0 0 4.6-1.2 12.7-3 34.2-7.3 131.8-24.4 221.3-2.7q7.7 1.8 15.3 4.1c15.5 36.3 26.7 105.9 34.3 170.7 9 76.3 12.9 145.8 12.9 145.8z"/>
			<path id="&lt;Path&gt;" class="s6" d="m851.9 456.7c-3.8 57.3-84.7 92.6-100 96.3-16.1 4-108.2-11.7-119.4-65.6-2.2-10.3-2.6-19.7-1.9-28.2 34.2-6.9 131.8-23.2 221.3-2.5z"/>
			<path id="&lt;Path&gt;" class="s7" d="m681.6 572.4c0 0-38.8-25.3-48.2-17-9.4 8.3 15.5 37.3 37.1 35.6 21.6-1.7 11.1-18.6 11.1-18.6z"/>
			<path id="&lt;Path&gt;" class="s5" d="m747.4 553.9c-15 3-99.3-36.1-109.9-77.5-3.4-13.5-2.1-25 1.1-34.3 6.8-19.4 22.3-29.7 22.3-29.7 97.1-23.6 164.6-15.2 179.8 20.9q2.6 6.3 3.1 13.7c3 47.4-81.3 103.9-96.4 106.9z"/>
			<path id="&lt;Path&gt;" class="s7" d="m845 522.2c-7.2 3.4-14.4 19.5-30.6 26-16.3 6.5-35.8 12.5-25.6 32 10.2 19.5 48.3 26 72 2.3 23.7-23.7 10.7-72.9-15.8-60.3z"/>
			<path id="&lt;Path&gt;" class="s8" d="m678.3 627c0 0-13.2-3.4-11.4-7.9 1.9-4.5 10.4-3.7 10.4-3.7 0 0-10.2-9.5-2.2-19.7 6.4-8.2 15.1-5.7 15.1-5.7 0 0-5.3-8.2-0.3-13 3.6-3.3 10.6-0.8 10.6-0.8 0 0-0.2-24.3 18-28.3 20.4-6.2 27.2 12.8 27.2 12.8 0 0 11.8-8.4 21.5-5.1 5.8 1.9 8.4 8.7 8.4 8.7 0 0 11.7-1.4 18.3 5.1 6.5 6.5 4.2 16.7 4.2 16.7 0 0 10.3 3.1 9.8 13 0 0 20.4 10.1 7.4 32.1-13 22.1-137-4.2-137-4.2z"/>
			<path id="&lt;Path&gt;" class="s9" d="m678.8 632.8c0 0-13.2-3.4-11.4-7.9 1.9-4.5 10.3-3.7 10.3-3.7 0 0-10.1-9.5-2.1-19.8 6.4-8.1 15.1-5.6 15.1-5.6 0 0-5.3-8.2-0.3-13 3.6-3.4 10.6-0.8 10.6-0.8 0 0-0.2-24.3 18-28.3 20.4-6.2 27.2 12.7 27.2 12.7 0 0 11.8-8.3 21.5-5 5.8 1.9 8.4 8.7 8.4 8.7 0 0 11.7-1.4 18.3 5.1 6.5 6.5 4.2 16.6 4.2 16.6 0 0 10.3 3.2 9.8 13 0 0 20.4 10.2 7.4 32.2-13 22-137-4.2-137-4.2z"/>
			<path id="&lt;Path&gt;" class="s10" d="m739.2 618c0 0 3-6.4 12-6.7 9-0.2 10.9 5.9 10.9 5.9 0 0 7.6-4.6 7.6 4.7 2-6.1 16.5-4.1 17.1 4.1 0.6 8.3-8.1 16.2-8.1 16.2l-39.1-18.8z"/>
			<path id="&lt;Path&gt;" class="s10" d="m681 623.2c0 0-2.3-5.8 7.2-5.8 0.5-5.9 18.4-5.7 13.7 9.2-13 6.2-20.9-3.4-20.9-3.4z"/>
			<path id="&lt;Path&gt;" class="s6" d="m914.4 777.8c0 0-184.6 71.2-337.1-3.6 0.3-48.9 2.3-90.9 5.3-126.9 62.1 44.7 168.5 79.6 318.9-15.3 9 76.3 12.9 145.8 12.9 145.8z"/>
			<path id="&lt;Path&gt;" class="s11" d="m716.7 877.3q-54.4 0-106.6-1.3-27-0.7-53.4-1.7c-0.5-15.3 0.4-60 25.6-81.1 9.1-7.6 21.4-12.2 37.9-11.1 58.9 3.6 87.8 70.5 96.5 95.2z"/>
			<path id="&lt;Path&gt;" class="s11" d="m923.1 871.8c-10 0.5-20 1-30.1 1.5-42 1.8-85.1 3.1-129 3.6 3.8-13 20.6-62.6 59.5-84.5 10.1-5.7 21.8-9.5 35-10.3 16.4-1.1 28.6 3.2 37.8 10.3 5.7 4.5 10.2 10 13.7 16.2 13.1 22.5 13.4 52.7 13.1 63.2z"/>
			<path id="&lt;Path&gt;" class="s4" d="m896.3 792.4c-6.6 4.1-20.4 7-36.4 7-16 0-29.8-2.9-36.4-7 10.1-5.7 21.8-9.5 35-10.3 16.4-1.1 28.6 3.2 37.8 10.3z"/>
			<path id="&lt;Path&gt;" class="s6" d="m840.7 433.3c-6.6 18.4-50.7 32.5-104.2 32.5-44.5 0-82.6-9.8-97.9-23.7 6.8-19.4 22.3-29.7 22.3-29.7 97.1-23.6 164.6-15.2 179.8 20.9z"/>
			<path id="&lt;Path&gt;" class="s8" d="m817.3 458.3c0.5 28.8-76.8 55.3-76.8 55.3 0 0-85.3-20.9-80.8-51.4q0.6-4 1.9-7.6c8.5-24.5 39-32.8 82.3-37 43-4.1 68.1 16.4 72.6 35.1q0.7 2.8 0.8 5.6z"/>
			<path id="&lt;Path&gt;" class="s7" d="m816.5 452.7c-19.2 8-47.9 13.1-80 13.1-29.3 0-55.9-4.3-74.9-11.2 8.5-24.5 39-32.8 82.3-37 43-4.1 68.1 16.4 72.6 35.1z"/>
			<path id="&lt;Path&gt;" class="s12" d="m788.5 470.2c0 3.3-20.8 32.1-50.8 30.3-36.9-2.3-47.5-23-47.5-23 0.3-3.3 0.4-13.2 0.5-23.5 0.1-14.1 0.1-29 0.1-29l94.3-4c0 0 0.9 12.5 1.8 24.9 0.8 11.4 1.6 22.6 1.6 24.3z"/>
			<path id="&lt;Path&gt;" class="s13" d="m786.9 445.9c-12.3 12-28.2 24.1-48.1 24.8-15.7 0.6-38.5-8.2-48.1-16.7 0.1-14.1 0.1-29 0.1-29l94.3-4c0 0 0.9 12.5 1.8 24.9z"/>
			<path id="&lt;Path&gt;" class="s12" d="m585.8 271.9c0 0-30.5 1.2-19.8 47.5 10.7 46.3 59.8 31.6 59.8 31.6 0 0-6.7-80.8-40-79.1z"/>
			<path id="&lt;Path&gt;" class="s12" d="m876.6 267.4c0 0 19.6 0.4 17.7 35.8-1.9 35.4-55.7 44.4-55.7 44.4l15.4-85.1z"/>
			<path id="&lt;Path&gt;" class="s12" d="m853.4 292.3c0 0-1.3 86.9-17.9 105.8-16.5 18.8-64.7 42.9-100.1 43.6-35.4 0.8-85.8-21.2-100.5-39.9-11.9-15-29.9-90.3-29.9-90.3-2.5-24.9 3.2-88.9 3.2-88.9l20.3-35.5 3.5-6.1 17.6-30.7 132.5-10.5c0 0 73.8 52.7 76 75.3 2.3 22.6-4.7 77.2-4.7 77.2z"/>
			<path id="&lt;Path&gt;" class="s13" d="m831.4 203.6c-81.9 40.7-199.3 4-199.3 4l-3.6-20.5 3.5-6.1 156.5-22c0 0 32.2-3.4 42.9 44.6z"/>
			<path id="&lt;Compound Path&gt;" fill-rule="evenodd" class="s13" d="m842.4 263.2c1.7 0.7 2.6 2.4 2.4 4.2l-5.2 39.8c-0.2 1.4-1.2 2.6-2.5 3.1-2 0.9-5 2.6-7.2 5.6-1 1.4-2.7 1.9-4.4 1.5-19.7-5.4-60-12.3-75.1-14.7-1.1-0.2-2.1-0.8-2.7-1.7-4.3-7.2-2.5-24-17.4-25.2q-0.4 0-0.8 0c-15 1.2-13.1 18-17.5 25.2-0.5 0.9-1.5 1.5-2.6 1.7-15.2 2.4-55.4 9.3-75.2 14.7-1.6 0.4-3.4-0.1-4.4-1.5-2.1-3-5.2-4.7-7.2-5.6-1.3-0.5-2.2-1.7-2.4-3.1l-5.2-39.8c-0.3-1.8 0.7-3.5 2.4-4.2 11.4-4.7 56.3-22 112.3-24.3q0.2 0 0.4 0c55.9 2.3 100.9 19.6 112.3 24.3zm-133.7 26.3q-2.4-15.3-4.9-30.5c-0.6-4.1-5.1-7-10.2-6.7-7.9 0.4-17.1 1.4-27.2 3.6-11.2 2.4-20.6 5.6-28 8.7-3.7 1.5-5.8 4.8-5.1 8.1l6 28.5c1 4.5 6.7 7.3 12.4 6 13.6-3.1 35.8-7.3 49-9.1 5.1-0.8 8.7-4.5 8-8.6zm113.3-24.2c-7.4-3.1-16.8-6.3-27.9-8.7-10.1-2.2-19.4-3.2-27.2-3.6-5.1-0.3-9.7 2.6-10.3 6.6q-2.4 15.3-4.8 30.6c-0.7 4 2.8 7.8 8 8.5 13.1 1.9 35.4 6.1 49 9.2 5.6 1.3 11.4-1.5 12.3-6.1l6-28.5c0.7-3.2-1.3-6.5-5.1-8z"/>
			<path id="&lt;Path&gt;" class="s11" d="m876.6 267.4c0 0-17-4.1-25.2 34.7-4.6-23.8-0.8-52.4-0.8-52.4 0 0-26-22.7-24.8-57.2-33.4 11.9-80.2 22.4-188.1 2.6 0 0 1.7 56.5-28.8 72.9 4 10.7-3.9 43.5-3.9 43.5 0 0-4.6-39-19.2-39.6-13.6-31.6-23.8-68.3 5-79 0 0-1.1-57 70.1-108.4 66.7-48.2 118-20.9 107.4 14.3q-1.1 3.5-3 7.1c57.2-17.2 153.2 48.6 107.5 71.7q-1.2 0.6-2.4 1.2c30.5 28.2 6.2 88.6 6.2 88.6z"/>
			<path id="&lt;Path&gt;" class="s4" d="m869.4 176.7c0 0 36.7-5.6 8.2 53.9 4-30.7 9-49.7-8.2-53.9z"/>
			<path id="&lt;Path&gt;" class="s4" d="m876.6 267.4c0 0-17-4.1-25.2 34.7-4.6-23.8-0.8-52.4-0.8-52.4 0 0-26-22.7-24.8-57.2 20.2 4.5 33.5-5.1 39.7-11.2 2.6-2.6 4.9-2.5 4.9-2.5 30.5 28.2 6.2 88.6 6.2 88.6z"/>
			<path id="&lt;Path&gt;" class="s4" d="m585 212.5c0 0-25.7-89.6 54.6-98-26.7 3.8-58.1 34.8-44.7 94.8 13.3 60-9.9 3.2-9.9 3.2z"/>
			<path id="&lt;Path&gt;" class="s4" d="m591.4 201.9c0 0-7.3-28.8-22.6-24.3-15.2 4.6 22.6 24.3 22.6 24.3z"/>
			<path id="&lt;Path&gt;" class="s4" d="m608.9 268c4 10.7-3.9 43.5-3.9 43.5 0 0-4.6-39-19.2-39.6-13.6-31.6-23.8-68.3 5-79 22.1 15.2 46.9 2.2 46.9 2.2 0 0 1.7 56.5-28.8 72.9z"/>
			<path id="&lt;Path&gt;" class="s5" d="m751.4 244.1l-4.7 46.3 15.9 7.1 57.7 8.3 13.7-46.7-57.6-13.9z"/>
			<path id="&lt;Path&gt;" class="s13" d="m599.9 346.1c0 0-13.6-21.1 2.6-24.5-6.4-34.2-14.7-39.9-21.5-38-7.7 2.2-28.2 29.8 18.9 62.5z"/>
			<path id="&lt;Path&gt;" class="s2" d="m628.5 258.8l12.3 47 69.6-10.9 6.2-14.7-8.3-38c0 0-55.1 1.1-79.8 16.6z"/>
			<path id="&lt;Path&gt;" class="s13" d="m854.7 311.8c0 0 16.6 6.4 8.7 20.8 27.1-18.9 29.4-36.2 20.3-50.5-9-14.3-27.1-3.8-29 29.7z"/>
			<path id="&lt;Compound Path&gt;" fill-rule="evenodd" class="s8" d="m842.5 257.6c1.7 0.6 2.7 2.4 2.4 4.2l-5.2 39.8c-0.2 1.4-1.1 2.5-2.4 3.1-2 0.8-5.1 2.5-7.2 5.6-1 1.3-2.8 1.9-4.4 1.4-19.8-5.3-60-12.3-75.2-14.7-1.1-0.1-2.1-0.7-2.6-1.7-4.4-7.1-2.5-23.9-17.5-25.2q-0.4 0-0.8 0c-15 1.3-13.1 18.1-17.4 25.2-0.6 1-1.6 1.6-2.7 1.7-15.1 2.4-55.4 9.4-75.2 14.7-1.6 0.5-3.3-0.1-4.3-1.4-2.2-3.1-5.2-4.8-7.3-5.6-1.2-0.6-2.2-1.7-2.4-3.1l-5.2-39.8c-0.2-1.8 0.7-3.6 2.4-4.2 11.4-4.8 56.4-22 112.3-24.4q0.2 0 0.4 0c56 2.4 100.9 19.6 112.3 24.4zm-133.7 26.3q-2.4-15.3-4.8-30.6c-0.7-4-5.1-6.9-10.3-6.7-7.8 0.5-17.1 1.5-27.2 3.7-11.1 2.4-20.5 5.6-27.9 8.6-3.8 1.6-5.8 4.8-5.1 8.1l6 28.5c0.9 4.5 6.7 7.4 12.3 6.1 13.6-3.1 35.9-7.3 49-9.2 5.1-0.7 8.7-4.5 8-8.5zm113.4-24.3c-7.4-3-16.8-6.2-28-8.6-10.1-2.2-19.3-3.2-27.1-3.7-5.2-0.3-9.7 2.7-10.3 6.7q-2.5 15.3-4.9 30.5c-0.6 4.1 2.9 7.9 8 8.6 13.2 1.9 35.4 6 49 9.2 5.6 1.3 11.4-1.6 12.4-6.1l6-28.5c0.7-3.3-1.4-6.5-5.1-8.1z"/>
			<path id="&lt;Path&gt;" class="s13" d="m705.9 326.4c0 0 25.1-12.4 48.7 0.9-14.3-26.1-38.3-22.1-48.7-0.9z"/>
			<path id="&lt;Path&gt;" class="s13" d="m732.3 403.1c-20.4-0.5-41.3-11.9-44.6-31.8-1-6.4 1.6-13.7 7.6-19.7 6.7-6.6 17.6-11.7 32.5-12.3 16.6-0.7 30.3 0.7 39.2 6.3 6.4 4.1 10.3 10.4 11 19.7 1.5 22.1-25.2 38.3-45.7 37.8z"/>
			<path id="&lt;Path&gt;" class="s8" d="m767 348.6c-3.8 5.7-14.1 16.1-38.4 16.7-21.2 0.5-29.8-5.9-33.3-10.7 6.7-6.6 17.6-11.6 32.5-12.3 16.6-0.7 30.3 0.7 39.2 6.3z"/>
			<path id="&lt;Path&gt;" class="s13" d="m722.1 410.3c0 0 13.6 8.2 27.1 0.8-9.6 21.5-23.4 11.3-27.1-0.8z"/>
			<path id="&lt;Path&gt;" class="s11" d="m760.6 216.3c-6.9 17 37.8 22.4 43.3 13 3.4-5.8-32.4-39.6-43.3-13z"/>
			<path id="&lt;Path&gt;" class="s11" d="m698 216.3c7 17-37.8 22.4-43.3 13-3.4-5.8 32.4-39.6 43.3-13z"/>
			<path id="&lt;Path&gt;" class="s8" d="m633.4 288.9l-25.3 6.8-5.8 1.6c-1.5-6.3-3.8-13.4-7-18.4l14.2-8.8 18.5-11.3z"/>
			<path id="&lt;Path&gt;" class="s8" d="m866.7 270.5c-3.4 2.6-6.9 7.6-12 20.2-1.3-0.2-3.3-0.2-4.5-0.4-8.4-1.1-12.9-1.3-12.9-1.3l4-26.5 5.6 1.5z"/>
			<path id="&lt;Path&gt;" class="s8" d="m621.1 635.5c32.8 45.5-30.5 180.8-106.5 99.4-79.6-85.3 34.3-199.9 106.5-99.4z"/>
			<path id="&lt;Path&gt;" class="s11" d="m621.3 643.5c32.8 45.6-30.5 180.8-106.5 99.4-79.6-85.3 34.2-199.9 106.5-99.4z"/>
			<path id="&lt;Path&gt;" class="s8" d="m638.6 630.8q-6.8 13.3-13.6 26.7c-1.4 2.8-4.2 4.8-7.3 5.2q0 0 0 0-1 0.2-2 0.1c-9-0.5-23.6-3.1-37.6-13.3-9.2-6.7-15.1-14.5-18.7-20.5-1.7-2.7-1.9-6.1-0.6-9q5.3-11.9 10.7-23.8c1.3-3.1 4.2-5.2 7.6-5.7 7.9-1 21.9-1.3 36.5 6.4 13.7 7.3 21.2 18.1 24.9 24.8 1.5 2.8 1.5 6.2 0.1 9.1z"/>
			<path id="&lt;Path&gt;" class="s7" d="m617.7 662.7q0 0 0 0-1 0.2-2 0.1c-9-0.5-23.6-3.1-37.6-13.3-9.2-6.7-15.1-14.5-18.7-20.5 29.5 2.5 68.1-19.4 68.1-19.4l5.7 8.2c0 0 1.1 8.8 1.7 9.9 0.4 0.9-12.4 25.8-17.2 35z"/>
			<path id="&lt;Path&gt;" class="s8" d="m828.8 633.7l-21.1 158.1h-115.2l-34.7-157.3c0 0 12.8-24.9 57.3-4.5 27.8-26.4 54.9-9.1 61.7 0 19.6-20.4 44.4-9.8 52 3.7z"/>
			<path id="&lt;Path&gt;" class="s8" d="m828.8 629.2l-21.1 158.1h-115.2l-34.7-157.3c0 0 12.8-24.9 57.3-4.6 27.8-26.3 54.9-9 61.7 0 19.6-20.3 44.4-9.7 52 3.8z"/>
			<path id="&lt;Path&gt;" class="s9" d="m828.8 633.7l-21.1 158.1h-39.7l8.8-161.8c19.6-20.4 44.4-9.8 52 3.7z"/>
			<path id="&lt;Path&gt;" class="s9" d="m728.8 791.8h-36.3l-34.7-157.3c0 0 12.8-24.9 57.3-4.5z"/>
			<path id="&lt;Path&gt;" class="s13" d="m577.7 607.8c0 0 19.2 26.7 47.4 18.4 21.8-26 19.6-66.3 19.6-66.3 0 0-43-3.7-64.9 15.9-4.5 14.6-2.1 32-2.1 32z"/>
			<g id="&lt;Group&gt;">
				<path id="&lt;Path&gt;" class="s9" d="m664.7 582.9c2.1 5.8-5 11.3-10.1 7.9q0 0 0 0c-10.2 8.6-19.4-10.1-6.3-12.9-1.7-9.4 13.3-8.9 11.1 0.3q0 0 0 0c2.4 0.4 4.5 2.2 5.3 4.7z"/>
				<path id="&lt;Path&gt;" class="s10" d="m649.3 579.9c0 0 3.6 3.2 4.2 8.2 0.5-4.4 5.6-7.9 5.6-7.9 0 0-4.4 2.1-9.8-0.3z"/>
			</g>
			<path id="&lt;Path&gt;" class="s12" d="m581.2 589c0 0 8.5 20.9 19 17.5 10.4-3.4 0-44.3-6-47.7-5.9-3.4-24.3 5.4-13 30.2z"/>
			<path id="&lt;Path&gt;" class="s12" d="m600.3 585c0 0 11.9 19.1 21.6 14 9.7-5.1-7.5-43.7-13.9-46-6.5-2.4-23.1 9.4-7.7 32z"/>
			<path id="&lt;Path&gt;" class="s12" d="m616.6 576.5c0 0 11.9 19.1 21.7 14 9.7-5.1-7.5-43.7-14-46-6.4-2.3-23 9.4-7.7 32z"/>
			<path id="&lt;Path&gt;" class="s12" d="m623.6 549.6c0.3-0.7 8.6-15.5 23.7-14.1 15.1 1.4 16.8 26.6 11.4 33.5-5.3 6.9-13.4-1.7-15.8-8.8-1.1 3.3-7.5 8.2-7.5 8.2z"/>
			<path id="&lt;Path&gt;" class="s12" d="m610.8 627.7c0 0-8.4-13.5 0.6-20.6 9.1-7.1 25.2-6.8 31.1-12.4 5.9-5.7 18.6-5.1 18.9 4.2 0.3 9.3-30.6 32.2-50.6 28.8z"/>
			<path id="&lt;Path&gt;" class="s13" d="m743.2 747.6c0 0-18.7 4.1-18.4 9.7 0.4 5.6 1.7 11.8 21.3 8.2 19.7-3.6 19.7-3.6 19.7-3.6l-6.8-17.2z"/>
			<path id="&lt;Path&gt;" class="s13" d="m751.4 764.8c0 0-18.7 2.6-18.4 8.2 0.3 5.6 1.7 11.8 21.3 8.2 19.6-3.6 19.6-3.6 19.6-3.6l-9.8-16.4z"/>
			<path id="&lt;Path&gt;" class="s8" d="m826.5 727.5c0 0-9.2-17.5 7.5-50.5 20-39.1 121.1-54.2 155.1-7.5 33.9 46.7-115.9 158.1-152.1 99.4-15.8-29.4-10.5-41.4-10.5-41.4z"/>
			<path id="&lt;Path&gt;" class="s11" d="m826.5 733.1c0 0-9.2-17.5 7.5-50.4 20-39.2 121.1-54.2 155.1-7.6 33.9 46.7-115.9 158.2-152.1 99.4-15.8-29.3-10.5-41.4-10.5-41.4z"/>
			<path id="&lt;Path&gt;" class="s13" d="m803.4 720c0 0-20.3-9.8-22.6-10.8-2.3-1-17.3-3.3-10.5 9.8 6.9 13.1 33.1 1 33.1 1z"/>
			<path id="&lt;Path&gt;" class="s8" d="m850.4 770.8c-6.7 7.4-16.6 10.5-24.1 9.4-2.6-0.4-4.9-2.5-6.8-5.6-4.1-6.3-6.6-17.2-8.2-27-1.9-11.5-2.5-21.6-2.5-21.6 0 0-1.9-8.7 10.2-11.9 12-3.2 27.1-7.9 36.7 23.2q0.2 0.7 0.4 1.5c4.1 14.5 0.6 25.1-5.7 32z"/>
			<path id="&lt;Path&gt;" class="s7" d="m850.4 770.8c-4.7 2.2-10.1 3.6-15.2 4-6.2 0.6-11.4 0.4-15.7-0.2-4.1-6.3-6.6-17.2-8.2-27 10.3-0.3 30.5-1.9 44.8-8.8 4.1 14.5 0.6 25.1-5.7 32z"/>
			<path id="&lt;Path&gt;" class="s13" d="m761 778.4c0 0-17.9 5.8-16.6 11.2 1.2 5.5 3.6 11.4 22.3 4.4 18.7-7 18.7-7 18.7-7l-12.5-14.4z"/>
			<path id="&lt;Path&gt;" class="s12" d="m760.7 722.1c0 0-14.3 36.8 16.7 68.2 42.2-13.7 47.6-19.1 47.6-19.1 0 0 6.1-26.3-9.8-47.6-18.7-9.4-54.5-1.5-54.5-1.5z"/>
			<path id="&lt;Path&gt;" class="s12" d="m760.7 722.1c0 0-32.4 9-33.9 11.9-1.5 3-4.3 9.7 0.7 13.1 4.9 3.5 36.6-2.2 36.6-2.2z"/>
			<path id="&lt;Path&gt;" class="s10" d="m707.2 589.3c0 0 1.3 6.4-1.4 8.1 4.4-2.4 9.8-2.4 9.8-2.4 0 0-3.5-0.4-8.4-5.7z"/>
			<path id="&lt;Path&gt;" class="s10" d="m762.5 586.7c0 0-2.3 5.2-11.5 5.4 5.5 2.3 14.1 9.3 14.1 9.3 0 0-4.5-9.8-2.6-14.7z"/>
			<path id="&lt;Path&gt;" class="s10" d="m781.9 602.5c0 0-1.1 6.6-4.3 8.5 4.9-2.7 11.3-2.7 11.3-2.7 0 0-6.1-0.7-7-5.8z"/>
			<path id="&lt;Path&gt;" class="s10" d="m721.7 609.3c0 0 2.4 2.6-0.6 6.9 4.9-2.6 12-3.2 12-3.2 0 0-6.5-0.2-11.4-3.7z"/>
			<path id="&lt;Path&gt;" class="s10" d="m737.3 573.9c0 0-2.7 6.6-6.6 7.5 7.7 0.2 11.9 4.1 11.9 4.1 0 0-4.6-5.8-5.3-11.6z"/>
			<path id="&lt;Path&gt;" class="s14" d="m730.9 279.7c6.2 1.1 12 22.6 5.6 24.8-6.4 2.3-13.2 1.9-14.3-3-0.9-4.3 1.5-23.2 8.7-21.8z"/>
			<path id="&lt;Path&gt;" class="s14" d="m660.9 322c0 0-26.8 4.2-32 10.9-5.3 6.8 17.7 23 45.9 7.6 28.2-15.5 5.6-24.1-13.9-18.5z"/>
			<path id="&lt;Path&gt;" class="s14" d="m793.8 322.4c31.2 2.2 38.7 9.8 33.1 19.9-5.7 10.2-55-4.9-54.6-12.4 0.4-7.5 16.2-7.9 21.5-7.5z"/>
			<path id="&lt;Path&gt;" class="s11" d="m759.1 112.7c1.3-1.3 10.7-33.6 25.1-24.3 14.5 9.4-25.1 24.3-25.1 24.3z"/>
		</g>
		<g id="&lt;Group&gt;">
			<text id="Watching Movie in the cinema
" style="transform: matrix(2,0,0,2,751.138,936.781)" >
				<tspan x="-112.1" y="0" class="t15">Watching Movie in the cinema
</tspan>
			</text>
			<text id="Vector Illustration
" style="transform: matrix(2,0,0,2,751.15,968.355)" >
				<tspan x="-54.2" y="0" class="t16">Vector Illustration
</tspan>
			</text>
		</g>
	</g>
</svg>