<?xml version="1.0" encoding="utf-8"?>
<!-- Generator: Adobe Illustrator 25.1.0, SVG Export Plug-In . SVG Version: 6.00 Build 0)  -->
<svg version="1.1" id="Layer_1" xmlns="http://www.w3.org/2000/svg" xmlns:xlink="http://www.w3.org/1999/xlink" x="0px" y="0px"
	 viewBox="0 0 1159 771" style="enable-background:new 0 0 1159 771;" xml:space="preserve">
<style type="text/css">
	.st0{fill:#FFFFFF;}
	.st1{fill:#CBE4F9;}
	.st2{fill:#6E7F32;}
	.st3{fill:#ADBF45;}
	.st4{fill:url(#SVGID_1_);}
	.st5{fill:#FB6044;}
	.st6{fill:#CE3A24;}
	.st7{fill:#D0644F;}
	.st8{clip-path:url(#background_3_);fill:url(#SVGID_2_);}
	.st9{clip-path:url(#background_3_);fill:#ADBF45;}
	.st10{clip-path:url(#background_3_);fill:#6E7F32;}
	.st11{clip-path:url(#background_3_);fill:url(#SVGID_3_);}
	.st12{fill:#2B373D;}
	.st13{fill:#FFAC98;}
	.st14{fill:#171E21;}
	.st15{fill:#288CF3;}
	.st16{fill:#2278C6;}
	.st17{clip-path:url(#background_4_);fill:#2B373D;}
	.st18{fill:#FDD23C;}
	.st19{fill:#EAB102;}
	.st20{opacity:0.69;fill:#2076C4;}
	.st21{fill:#2076C4;}
</style>
<rect id="Rectangle" class="st0" width="1159" height="771"/>
<path id="background" class="st1" d="M736.83,107.85c78.61,46.85,108.13,125.18,116,147c32.72,90.71,11.97,170.6,3,199
	c-34.99,110.84-119.94,164.84-143,179c-26.13,16.05-106.17,65.21-211,48c-7.05-1.16-154.46-27.8-210-157
	c-9.16-21.31-42.45-98.75-6-169c25.85-49.83,81.44-85.73,133-96c37.04-7.38,55.73,1.71,79-16c26.43-20.11,17.39-43.29,43-86
	c7.94-13.25,39.44-65.77,92-77C674.81,70.88,710.86,92.37,736.83,107.85z"/>
<g id="flowes">
	<path class="st2" d="M935.89,294.05c0,0-4.05-9.87-46.49-6.76c0,0-18.41,1.35-73.27,12.54c-4.8,0.98-13.22,2.82-19.08,10.05
		c-2.19,2.7-3.33,5.31-6.73,19.17c-4.86,19.84-5.29,25.8-9.99,34.77c-2.03,3.87-7.09,13.51-11.17,12.82
		c-4.32-0.73-5.94-12.78-5.88-21.2c0.18-25.94,16.34-39.5,11.75-46.11c-4.23-6.09-21.34,0.63-32.92,5.18
		c-12.7,4.99-30.55,12.01-41.9,30.74c-4.58,7.56-6.51,14.4-7.54,18.16c-1.15,4.2-4.18,16.61-1.27,38.55
		c3.47,26.1,11.81,39.06,7.06,43.15c-3.25,2.8-9.89-0.92-10.63-1.34c-12.9-7.4-15.27-31.44-11.49-49.49
		c2.81-13.44,8.01-18.74,5.5-21.99c-4.46-5.8-26.92,3.29-43.34,15.88c-34.59,26.52-44.42,70.18-47.98,86.02
		c-4.4,19.56-11.56,51.38,0.76,86.39c13.46,38.25,50.49,81.22,80.7,73.8c37.69-9.26,16.52-85.12,79.13-168.37
		c43.03-57.22,130.12-123.89,145.35-135.55C913.04,317.75,935.89,294.05,935.89,294.05z"/>
	<path class="st3" d="M666.78,634.44c11.08,17.01,68.57,6.61,93.79-7.73c21.75-12.36,28.93-26.68,31.26-32.08
		c0.96-2.22,8.26-19.15,2.3-25.51c-5.26-5.61-15.91,2.29-27.2-4.77c-3.03-1.9-8.56-6.4-7.64-9.86c1.66-6.24,22.21-1.14,47.03-7.4
		c7.89-1.99,34.55-9.12,54.03-33.65c2.22-2.8,19.57-25.24,18.7-53.24c-0.13-4.34-0.58-18.78-7.86-21.9
		c-2.99-1.28-4.77,0.36-14.11,2.22c-10.43,2.08-18.56,3.7-22.02-0.56c-2.06-2.54-2.16-6.78-0.96-9.91c2.4-6.29,10.08-8.2,21.8-11.48
		c21.42-5.99,32.19-9.03,35.16-11.57c4.45-3.81,5.44-7.26,14.21-40.46c7.83-29.64,9.23-35.14,12.98-43.29
		c9.2-19.95,20.62-26.85,19.13-29.17c-3.11-4.83-53.4,21.93-103.83,61.61c-29.42,23.16-71.45,53.51-106.93,108.37
		C692.59,516.71,656.68,618.93,666.78,634.44z M821.14,400.11c-1.26-6.6,12.08-15.7,29.8-20.31c17.72-4.61,33.1-3,34.35,3.6
		c1.26,6.6-12.08,15.7-29.8,20.31C837.78,408.33,822.4,406.71,821.14,400.11z M800.22,456.09c23.32-5.18,43.47-1.33,45.01,8.6
		c1.54,9.93-16.1,22.17-39.42,27.35c-23.32,5.18-43.47,1.33-45.01-8.6C759.26,473.52,776.9,461.27,800.22,456.09z"/>
	<path class="st2" d="M888.98,345.51c-5.69,1.69-11.16,3.41-16.7,4.65c-5.53,1.23-11.09,2.18-16.7,2.62
		c-5.59,0.48-11.19,0.42-16.69-0.44c-2.76-0.39-5.48-1.04-8.21-1.76c-2.72-0.71-5.47-1.71-8.37-1.93c2.7,0.95,5.1,2.48,7.73,3.66
		c2.6,1.25,5.34,2.24,8.15,3.05c5.64,1.53,11.57,2.03,17.44,1.73c1.47-0.08,2.94-0.17,4.4-0.36c1.46-0.17,2.93-0.29,4.39-0.57
		c2.92-0.53,5.83-1.2,8.66-2.17C878.75,352.07,884.2,349.32,888.98,345.51z"/>
	<path class="st2" d="M849.76,488.68c-4.19,3.07-8.44,6-12.83,8.66c-4.39,2.65-8.89,5.05-13.45,7.25
		c-9.21,4.27-18.58,8.3-27.99,11.93c-9.44,3.59-18.99,6.79-28.66,9.01c-9.72,2.08-19.57,3.7-29.43,4.62
		c-9.86,0.91-19.75,1.19-29.6,0.9c-9.83-0.23-19.72-1.37-29.63-1.83c-19.79-1.22-39.65-2.49-59.58-2.12
		c9.9,0.77,19.76,1.6,29.61,2.7l29.58,2.96c9.88,0.89,19.69,1.97,29.71,2.43c9.99,0.49,20.05,0.19,30.08-0.67
		c10.04-0.88,20.03-2.44,29.96-4.68c9.96-2.32,19.65-5.73,29.12-9.64c4.74-1.94,9.43-4.04,14.06-6.25c4.64-2.22,9.24-4.42,13.8-6.94
		c4.55-2.5,8.95-5.3,13.15-8.38C841.88,495.56,845.95,492.27,849.76,488.68z"/>
	<path class="st3" d="M816.35,311.87c-3.23,3.74-5.54,8.28-7.65,12.76c-2.11,4.51-3.94,9.11-5.77,13.7
		c-3.59,9.41-5.84,19.16-7.74,28.86l-1.35,7.28l-0.66,3.64c-0.2,1.26-0.38,2.53-0.51,3.78c-0.54,5-0.78,9.93-0.82,14.86
		c-0.07,9.85,0.41,19.71,2.18,29.28c-0.1-9.81,0.32-19.56,1.02-29.28c0.4-4.85,0.8-9.72,1.5-14.48c0.17-1.19,0.39-2.35,0.61-3.52
		l0.7-3.62l1.43-7.22c1.94-9.6,3.96-19.17,7.02-28.36l4.54-14.05C812.41,320.85,814.01,316.24,816.35,311.87z"/>
	<g>
		<path class="st2" d="M232.54,425.07c0,0,1.26-6.5,27.45-9.79c0,0,11.36-1.43,46.09-1.32c3.04,0.01,8.38,0.1,12.83,3.78
			c1.66,1.37,2.68,2.82,6.43,10.83c5.38,11.47,6.37,15.04,10.32,19.92c1.71,2.11,5.96,7.35,8.36,6.43c2.54-0.97,2.05-8.5,0.99-13.61
			c-3.27-15.75-14.76-22.03-12.78-26.61c1.83-4.22,13.06-2.22,20.65-0.87c8.34,1.49,20.04,3.57,29.23,13.58
			c3.71,4.04,5.72,7.96,6.81,10.12c1.22,2.42,4.57,9.59,5.48,23.29c1.08,16.3-2.41,25.2,0.98,27.1c2.32,1.31,5.9-1.77,6.3-2.12
			c6.94-6.08,5.45-20.98,0.95-31.5c-3.35-7.83-7.16-10.42-6.03-12.7c2.01-4.07,16.78-1.29,28.3,4.36
			c24.28,11.91,35.58,37.26,39.69,46.45c5.07,11.36,13.31,29.83,10.09,52.63c-3.51,24.9-20.79,55.56-40.07,54.74
			c-24.05-1.03-20.44-49.75-68.69-92.73c-33.16-29.54-94.27-59.45-104.95-64.68C249.33,436.69,232.54,425.07,232.54,425.07z"/>
		<path class="st3" d="M380.57,502.92c-28.28-29.03-57.54-42.36-78.26-52.85c-35.51-17.98-69.37-28.11-70.67-24.79
			c-0.62,1.59,7.17,4.39,15.2,15.4c3.28,4.49,4.8,7.67,13.18,24.74c9.39,19.12,10.41,21.1,13.58,22.87
			c2.12,1.18,9.04,1.72,22.8,2.74c7.53,0.56,12.43,0.79,14.66,4.32c1.11,1.76,1.57,4.35,0.62,6.14c-1.58,3.01-6.72,3.02-13.32,3.03
			c-5.91,0.01-7.19-0.77-8.85,0.37c-4.04,2.79-2.55,11.62-2.1,14.28c2.89,17.14,16.18,28.67,17.87,30.09
			c14.84,12.54,31.93,13.62,36.97,13.87c15.86,0.78,27.73-4.83,29.5-1.24c0.98,1.99-1.83,5.41-3.44,6.93
			c-6.01,5.67-13.45,2.17-15.96,6.22c-2.85,4.59,3.66,14,4.51,15.23c2.07,3,8.19,10.83,22.93,15.69
			c17.09,5.64,53.32,4.94,57.98-6.76C442.02,588.55,407.7,530.77,380.57,502.92z M294.82,481.95c-11.34-0.64-20.56-4.54-20.6-8.71
			c-0.04-4.17,9.11-7.03,20.45-6.39c11.34,0.64,20.56,4.54,20.6,8.71C315.32,479.73,306.16,482.59,294.82,481.95z M362.15,518.87
			c0.27,6.23-11.51,11.03-26.32,10.73c-14.81-0.3-27.04-5.59-27.31-11.82c-0.27-6.23,11.51-11.03,26.32-10.73
			C349.65,507.35,361.88,512.65,362.15,518.87z"/>
		<path class="st2" d="M267.35,450.64c3.67,0.33,7.2,0.71,10.72,0.79c3.51,0.08,7.01-0.03,10.48-0.44c3.46-0.39,6.85-1.11,10.1-2.31
			c1.63-0.57,3.2-1.3,4.78-2.08c1.57-0.76,3.12-1.71,4.85-2.19c-1.52,0.9-2.8,2.13-4.26,3.17c-1.43,1.08-2.98,2.01-4.58,2.85
			c-3.25,1.62-6.79,2.65-10.4,3.18c-0.9,0.13-1.81,0.26-2.72,0.32c-0.91,0.08-1.82,0.18-2.74,0.19c-1.84,0.04-3.69-0.02-5.53-0.26
			C274.37,453.38,270.72,452.37,267.35,450.64z"/>
		<path class="st2" d="M308.69,532.92c2.92,1.36,5.87,2.62,8.86,3.7c2.99,1.07,6.02,1.98,9.07,2.76c6.12,1.47,12.31,2.78,18.48,3.84
			c6.18,1.03,12.38,1.81,18.53,1.98c6.17,0.08,12.36-0.14,18.46-0.79c6.11-0.65,12.15-1.69,18.11-3.07
			c5.95-1.34,11.82-3.24,17.8-4.73c11.88-3.16,23.81-6.36,35.98-8.56c-5.93,1.67-11.82,3.39-17.68,5.26l-17.63,5.41
			c-5.9,1.74-11.73,3.61-17.77,5.11c-6.02,1.52-12.17,2.56-18.38,3.27c-6.22,0.69-12.48,0.96-18.79,0.81
			c-6.34-0.19-12.65-1.08-18.89-2.31c-3.12-0.6-6.23-1.31-9.32-2.08c-3.09-0.78-6.16-1.56-9.24-2.53c-3.07-0.96-6.09-2.13-9.02-3.49
			C314.32,536.14,311.45,534.64,308.69,532.92z"/>
		<path class="st3" d="M307.42,421.31c2.42,1.88,4.38,4.36,6.21,6.83c1.83,2.49,3.51,5.06,5.18,7.63
			c3.33,5.28,5.89,10.94,8.23,16.61l1.71,4.26l0.84,2.13c0.28,0.74,0.54,1.49,0.77,2.23c0.94,2.97,1.69,5.94,2.32,8.94
			c1.24,5.98,2.16,12.04,2.25,18.07c-1.14-5.98-2.58-11.85-4.19-17.68c-0.84-2.9-1.68-5.81-2.68-8.62c-0.25-0.71-0.52-1.38-0.8-2.06
			l-0.87-2.12l-1.75-4.22c-2.35-5.6-4.75-11.17-7.74-16.39l-4.47-7.99C310.91,426.29,309.37,423.68,307.42,421.31z"/>
	</g>
	<g>
		<path class="st2" d="M343,330.43c0,0,1.67-3.37,16.55-1.21c0,0,6.45,0.94,25.49,6.26c1.67,0.47,4.59,1.33,6.47,4.02
			c0.7,1.01,1.04,1.95,1.89,6.92c1.21,7.11,1.21,9.22,2.64,12.5c0.62,1.42,2.16,4.94,3.61,4.8c1.54-0.15,2.41-4.35,2.6-7.32
			c0.59-9.14-4.76-14.33-2.98-16.54c1.64-2.04,7.5,0.76,11.46,2.65c4.35,2.08,10.46,5,13.98,11.88c1.42,2.78,1.93,5.23,2.2,6.59
			c0.3,1.51,1.06,5.95-0.52,13.61c-1.88,9.11-5.14,13.46-3.57,15.02c1.07,1.07,3.51-0.07,3.78-0.21c4.73-2.28,6.17-10.69,5.29-17.14
			c-0.65-4.8-2.35-6.8-1.39-7.88c1.72-1.93,9.4,1.84,14.87,6.68c11.52,10.21,13.88,25.84,14.74,31.5c1.06,7,2.78,18.39-2.44,30.41
			c-5.7,13.13-19.83,27.34-30.28,23.96c-13.04-4.21-3.68-30.4-23.64-61.29c-13.72-21.23-42.72-46.91-47.78-51.4
			C350.45,339.35,343,330.43,343,330.43z"/>
		<path class="st3" d="M412.43,395.58c-11.12-20.22-25.15-31.96-34.94-40.86c-16.76-15.25-33.8-25.94-35.02-24.31
			c-0.58,0.78,3.27,3.5,6,10.75c1.12,2.96,1.47,4.94,3.48,15.57c2.25,11.91,2.51,13.16,3.99,14.61c0.98,0.97,4.7,2.31,12.09,4.96
			c4.05,1.45,6.7,2.32,7.39,4.59c0.34,1.13,0.2,2.62-0.59,3.47c-1.33,1.41-4.15,0.64-7.77-0.36c-3.24-0.89-3.83-1.51-4.91-1.14
			c-2.64,0.92-3.16,5.99-3.32,7.52c-1.01,9.84,4.54,18.18,5.25,19.22c6.24,9.13,15.45,12.31,18.18,13.21
			c8.58,2.83,15.95,1.55,16.38,3.79c0.24,1.24-1.82,2.69-2.94,3.28c-4.16,2.2-7.71-0.85-9.7,1c-2.26,2.09-0.11,8.24,0.17,9.04
			c0.68,1.96,2.86,7.18,10.2,12.09c8.52,5.68,28.51,10.79,32.84,5.08C433.17,451.88,423.09,414.97,412.43,395.58z M368.55,371.07
			c-6.12-2.07-10.59-5.61-9.99-7.9c0.61-2.29,6.07-2.48,12.19-0.41c6.12,2.07,10.59,5.61,9.99,7.9
			C380.13,372.96,374.68,373.14,368.55,371.07z M399.9,401.54c-0.79,3.46-7.99,4.31-16.07,1.9c-8.08-2.41-13.99-7.17-13.2-10.63
			c0.79-3.46,7.99-4.31,16.07-1.9C394.79,393.32,400.7,398.08,399.9,401.54z"/>
		<path class="st2" d="M358.22,349.73c1.96,0.74,3.84,1.48,5.76,2.06c1.92,0.57,3.85,1.05,5.82,1.34c1.96,0.31,3.93,0.43,5.89,0.26
			c0.98-0.07,1.96-0.23,2.94-0.41c0.98-0.18,1.97-0.47,3-0.47c-0.97,0.27-1.86,0.75-2.82,1.09c-0.95,0.38-1.94,0.65-2.95,0.87
			c-2.03,0.4-4.13,0.42-6.19,0.17c-0.52-0.06-1.03-0.13-1.54-0.24c-0.51-0.1-1.02-0.18-1.53-0.31c-1.01-0.26-2.02-0.57-3-0.98
			C361.66,352.3,359.81,351.19,358.22,349.73z"/>
		<path class="st2" d="M368.44,401.14c1.4,1.19,2.82,2.33,4.3,3.37c1.48,1.04,3,2,4.56,2.89c3.13,1.74,6.33,3.39,9.56,4.91
			c3.23,1.5,6.52,2.87,9.87,3.89c3.37,0.98,6.8,1.79,10.25,2.37c3.45,0.57,6.93,0.91,10.4,1.06c3.47,0.17,6.98,0.01,10.48,0.1
			c7,0.07,14.03,0.12,21.04,0.75c-3.51,0.02-7,0.07-10.5,0.21l-10.49,0.3c-3.5,0.06-6.98,0.2-10.53,0.11
			c-3.53-0.08-7.07-0.44-10.58-0.99c-3.51-0.56-6.99-1.36-10.44-2.4c-3.45-1.07-6.78-2.51-10.01-4.13c-1.62-0.8-3.22-1.66-4.8-2.55
			c-1.58-0.9-3.14-1.79-4.68-2.79c-1.54-0.99-3.02-2.09-4.42-3.28C371.04,403.77,369.69,402.5,368.44,401.14z"/>
		<path class="st3" d="M384.65,339.71c1.04,1.4,1.74,3.06,2.37,4.69c0.63,1.64,1.16,3.31,1.69,4.97c1.03,3.4,1.57,6.9,2,10.36
			l0.29,2.6l0.14,1.3c0.04,0.45,0.07,0.9,0.09,1.34c0.07,1.77,0.03,3.52-0.08,5.26c-0.22,3.47-0.64,6.93-1.5,10.26
			c0.28-3.45,0.38-6.9,0.38-10.34c-0.02-1.72-0.04-3.44-0.17-5.14c-0.03-0.43-0.08-0.84-0.13-1.25l-0.16-1.29l-0.32-2.58
			c-0.44-3.43-0.91-6.85-1.76-10.17l-1.24-5.06C385.81,342.97,385.37,341.31,384.65,339.71z"/>
	</g>
	<path class="st2" d="M738.08,321.35c5.27-1.42,10.43-3.34,15.37-5.8c2.47-1.22,4.88-2.6,7.22-4.1c2.34-1.49,4.62-3.11,6.79-4.86
		c4.38-3.48,8.39-7.45,12.12-11.68c3.72-4.24,7.14-8.79,10.1-13.68c1.48-2.45,2.82-4.98,4.03-7.59c1.2-2.62,2.22-5.32,3.08-8.09
		c1.68-5.54,2.56-11.41,2.26-17.26l-0.14-2.19l-0.28-2.17c-0.07-0.73-0.23-1.44-0.37-2.16c-0.15-0.71-0.27-1.43-0.45-2.14
		c-0.71-2.82-1.64-5.57-2.79-8.21c-2.28-5.28-5.29-10.2-8.99-14.52c-1.84-2.16-3.88-4.17-6.1-5.94c-2.22-1.77-4.62-3.33-7.22-4.5
		c-2.59-1.17-5.36-2.01-8.22-2.29c-2.85-0.29-5.77-0.11-8.55,0.58c-1.4,0.32-2.76,0.76-4.1,1.29c-1.34,0.51-2.63,1.14-3.9,1.81
		c-1.27,0.68-2.48,1.45-3.67,2.26c-1.17,0.84-2.33,1.71-3.42,2.67c-2.18,1.91-4.19,4.06-5.9,6.49c-1.72,2.41-3.14,5.13-4,8.11
		c-0.83,2.97-1.02,6.33-0.05,9.41c0.94,3.09,2.85,5.65,5.04,7.63c2.2,2,4.7,3.51,7.3,4.67c1.3,0.59,2.63,1.08,3.98,1.5
		c1.35,0.43,2.72,0.77,4.1,1.04c1.38,0.28,2.78,0.48,4.18,0.6c1.4,0.13,2.81,0.19,4.23,0.16c2.82-0.04,5.68-0.43,8.45-1.22
		c5.55-1.56,10.61-4.71,14.84-8.7c4.2-4.03,7.64-8.9,10.11-14.24c2.48-5.34,4.06-11.15,4.43-17.1c0.42-5.95-0.58-11.97-2.66-17.45
		c-2.08-5.5-5.25-10.46-9.11-14.67c-3.86-4.21-8.36-7.76-13.33-10.39c-4.96-2.63-10.39-4.43-16.03-4.87
		c-2.82-0.21-5.68-0.08-8.49,0.52c-1.4,0.3-2.79,0.7-4.13,1.22c-1.34,0.5-2.65,1.11-3.91,1.79c-5.05,2.73-9.47,6.55-13.1,11.07
		c-1.79,2.29-3.43,4.74-4.59,7.57c-0.56,1.42-1.02,2.94-1.05,4.66c0.01,0.86,0.15,1.8,0.6,2.68c0.46,0.86,1.12,1.49,1.8,1.95
		c0.68,0.47,1.39,0.79,2.1,1.03c0.71,0.25,1.43,0.43,2.15,0.55c1.44,0.25,2.88,0.29,4.3,0.22c1.43-0.07,2.84-0.3,4.24-0.66
		c1.39-0.36,2.76-0.86,4.06-1.55c1.3-0.68,2.55-1.54,3.63-2.64c1.09-1.09,1.96-2.44,2.56-3.87c1.19-2.89,1.36-5.99,1.11-8.93
		c-0.12-1.48-0.39-2.92-0.73-4.34c-0.33-1.42-0.76-2.81-1.26-4.16c-0.49-1.36-1.05-2.68-1.68-3.97c-0.62-1.29-1.3-2.55-2.04-3.76
		c-1.47-2.44-3.18-4.71-5.08-6.79c-0.96-1.03-1.97-2.01-3.04-2.93c-1.06-0.92-2.24-1.68-3.38-2.49c-4.74-2.93-10.16-4.6-15.62-4.89
		c-0.68-0.03-1.37-0.1-2.05-0.1l-2.05,0.04c-0.34,0.01-0.68,0-1.02,0.03l-1.02,0.1l-2.04,0.2c-2.7,0.42-5.4,0.94-8.01,1.8
		c-5.24,1.65-10.23,4.1-14.84,7.16c4.7-2.91,9.74-5.18,14.97-6.64c2.6-0.78,5.28-1.23,7.95-1.58l2.01-0.14l1.01-0.07
		c0.34-0.02,0.67,0,1.01,0l2.01,0.01c0.67,0.02,1.34,0.1,2,0.15c5.34,0.42,10.54,2.18,15.02,5.1c4.47,2.96,8.03,7.27,10.77,12
		c0.68,1.19,1.33,2.4,1.89,3.66c0.58,1.25,1.1,2.52,1.54,3.83c0.46,1.3,0.83,2.62,1.13,3.97c0.3,1.34,0.52,2.7,0.61,4.06
		c0.2,2.71-0.03,5.48-1.07,7.85c-1.01,2.38-2.93,4.16-5.24,5.28c-2.29,1.15-4.88,1.72-7.43,1.84c-1.28,0.05-2.56-0.01-3.79-0.24
		c-0.62-0.11-1.21-0.27-1.78-0.47c-0.56-0.2-1.1-0.46-1.54-0.77c-0.45-0.31-0.8-0.68-0.99-1.07c-0.19-0.38-0.27-0.88-0.28-1.43
		c0.03-1.14,0.39-2.4,0.89-3.61c1.03-2.43,2.57-4.71,4.27-6.82c3.44-4.19,7.67-7.74,12.35-10.19c1.17-0.61,2.37-1.16,3.59-1.6
		c1.22-0.46,2.47-0.81,3.72-1.07c2.52-0.51,5.12-0.62,7.7-0.41c5.17,0.44,10.23,2.15,14.86,4.65c4.64,2.51,8.86,5.88,12.43,9.84
		c3.57,3.97,6.52,8.58,8.41,13.64c1.9,5.05,2.79,10.51,2.39,15.95c-0.35,5.44-1.82,10.83-4.13,15.77c-2.3,4.95-5.51,9.44-9.36,13.14
		c-3.87,3.67-8.45,6.52-13.42,7.93c-4.94,1.43-10.28,1.42-15.38,0.44c-1.28-0.25-2.54-0.56-3.78-0.95
		c-1.24-0.38-2.46-0.83-3.64-1.36c-2.36-1.05-4.59-2.4-6.47-4.1c-1.88-1.69-3.39-3.77-4.11-6.12c-0.73-2.33-0.64-4.92,0.03-7.42
		c0.7-2.5,1.92-4.9,3.45-7.08c1.52-2.19,3.35-4.18,5.34-5.95c4-3.53,8.74-6.21,13.76-7.46c2.51-0.64,5.07-0.81,7.61-0.57
		c2.54,0.22,5.03,0.97,7.4,1.99c2.38,1.03,4.61,2.44,6.7,4.06c2.09,1.62,4.03,3.48,5.8,5.51c3.55,4.05,6.5,8.72,8.73,13.74
		c1.13,2.5,2.04,5.11,2.74,7.77c0.18,0.66,0.3,1.34,0.45,2.01c0.15,0.67,0.3,1.34,0.38,2.03l0.3,2.05l0.16,2.07
		c0.37,5.53-0.37,11.14-1.9,16.51c-0.78,2.68-1.73,5.32-2.86,7.88c-1.13,2.56-2.42,5.05-3.8,7.48c-2.79,4.85-6.06,9.41-9.64,13.69
		c-3.59,4.27-7.47,8.29-11.72,11.83C758.42,312.96,748.52,318.17,738.08,321.35z"/>
	<path class="st2" d="M400.8,310.6c-0.87,14.43,0.02,28.81,3.07,42.7c0.41,1.73,0.79,3.46,1.28,5.17c0.44,1.72,0.92,3.42,1.43,5.12
		c1.03,3.39,2.2,6.74,3.5,10.03c2.58,6.59,5.64,12.99,9.28,19.06c7.13,12.23,16.23,23.28,26.51,33.13
		c10.34,9.81,21.86,18.45,34.26,25.86c-13.36-5.56-25.8-13.47-36.88-22.97c-2.75-2.4-5.48-4.84-8.02-7.47
		c-1.31-1.28-2.53-2.64-3.8-3.96c-1.23-1.36-2.45-2.72-3.64-4.12c-4.71-5.62-8.97-11.62-12.74-17.94
		c-3.7-6.35-6.86-13.02-9.38-19.92c-2.47-6.92-4.42-14.02-5.6-21.25C397.63,339.59,397.87,324.76,400.8,310.6z"/>
</g>
<g id="man_14_">
	
		<linearGradient id="SVGID_1_" gradientUnits="userSpaceOnUse" x1="108.1402" y1="521.3572" x2="128.8225" y2="646.392" gradientTransform="matrix(0.988 -0.1545 0.1545 0.988 324.2411 62.8905)">
		<stop  offset="0" style="stop-color:#FC6C6D"/>
		<stop  offset="1" style="stop-color:#FFB57B"/>
	</linearGradient>
	<path class="st4" d="M522.43,292.82c-4.51-10.33-17.93-12.86-25.98-4.98c-13.29,13.01-30.84,35.18-40.29,67.77
		c-16.55,57.02-100.3,196.54-33.65,182.36c42.97-9.15,84.41-80.11,108.43-129.38c14.08-28.89,14.73-62.51,1.88-91.97L522.43,292.82z
		"/>
	<path class="st5" d="M582.76,271.16l-41.3,120.34l-27.25,79.4c-86.54,7.18-123.37-25.17-123.37-25.17s4.04-7.77,10.39-19.82
		c18.99-36.07,58.67-110.46,72.46-129.32C492.1,271.44,582.76,271.16,582.76,271.16z"/>
	<path class="st6" d="M541.46,391.5l-27.25,79.4c-86.54,7.18-123.37-25.17-123.37-25.17s4.04-7.77,10.39-19.82
		c17.06-5.54,37.24-9.98,49.13-14.93c22.67-9.45,11.34-45.35,18.9-75.58c7.56-30.23,3.78,22.67,7.56,51.02
		c3.78,28.34,32.12-73.69,32.12-73.69l30.23,39.68C539.17,352.41,541,369.17,541.46,391.5z"/>
	<path class="st7" d="M870.89,496.09c-0.04,0.53-0.14,1.08-0.26,1.63c-1.4,6.04-5.76,7.45-10.17,16.28
		c-2.03,4.09-2.95,7.47-3.5,9.85c-5.88,2.18-11.84,2.3-14.81,2.36c-28.95,0.61-50.95-28.97-63.42-47c-0.73-1.06-1.42-2.08-2.1-3.03
		c-43.97-63.91-45.66-149.36-44.03-190.77c10.42,2.62,25.49,7.77,40.45,18.54c22.18,16.01,29.01,33.59,46.9,71.44
		c25.64,54.2,40.73,86.7,47.45,107.41C869.06,487.89,870.22,492.26,870.89,496.09z"/>
	<path class="st5" d="M864.17,460.34c0,0-43.46,37.45-113.37,20.6l-44.03-120.8l-5.1-14.02c0,0,5.74-60.67,32.16-68.72
		c0,0,26.42-6.16,49.09,21.92c20.48,25.36,70.27,136.31,79.68,157.51C863.62,459.09,864.17,460.34,864.17,460.34z"/>
	<g>
		<defs>
			<path id="background_1_" d="M738.12,107.53c78.61,46.85,108.13,125.18,116,147c32.72,90.71,11.97,170.6,3,199
				c-34.99,110.84-119.94,164.84-143,179c-26.13,16.05-106.17,65.21-211,48c-7.05-1.16-154.46-27.8-210-157
				c-9.16-21.31-42.45-98.75-6-169c25.85-49.83,81.44-85.73,133-96c37.04-7.38,55.73,1.71,79-16c26.43-20.11,17.39-43.29,43-86
				c7.94-13.25,39.44-65.77,92-77C676.09,70.56,712.15,92.05,738.12,107.53z"/>
		</defs>
		<clipPath id="background_3_">
			<use xlink:href="#background_1_"  style="overflow:visible;"/>
		</clipPath>
		
			<linearGradient id="SVGID_2_" gradientUnits="userSpaceOnUse" x1="499.9182" y1="660.8948" x2="45.0034" y2="662.1477" gradientTransform="matrix(1 0 0 1 360 0)">
			<stop  offset="0" style="stop-color:#EE264B"/>
			<stop  offset="1" style="stop-color:#BC1C2C"/>
		</linearGradient>
		<path class="st8" d="M622.05,723.55c-0.42-3.68-0.83-7.35-1.27-11.02l-0.4-3.46c-1.97-16.87-4.01-33.61-6.08-50.26
			c-2.87-23-5.88-45.78-8.99-68.32c40.25,1.85,80.51,3.68,120.76,5.54c0.6,9.01,1.06,17.63,1.42,25.79v0.06
			c0.38,8.98,0.62,17.42,0.76,25.26c0.26,15.83,0.13,29.23-0.11,39.72c0,0,0,0.09-0.02,0.28
			C727.93,695.24,625.64,755.01,622.05,723.55z"/>
		<path class="st9" d="M728.12,686.85v0.28h-0.02c-16.17,1.15-35.62,3.84-57.12,9.56c-18.08,4.82-33.75,10.75-46.78,16.61
			c-1.13-0.26-2.29-0.51-3.42-0.77c-32.25-7.26-64.47-14.55-96.72-21.8V536.69c67.47-4.78,134.95-9.54,202.44-14.32
			c0.09,10.35,0.21,20.69,0.3,31.04c0.23,22.81,0.45,45.61,0.68,68.4v0.06c0.08,8.47,0.15,16.91,0.25,25.36
			C727.86,660.44,727.99,673.64,728.12,686.85z"/>
		<path class="st10" d="M728.24,647.13c-0.17,0.04-0.34,0.08-0.51,0.09c-27.72,5.01-68.66,10.77-113.43,11.58
			c-29.33,0.55-60.29-1.04-90.24-6.37v-96.18l202.74-2.85c0.23,22.81,0.45,45.61,0.68,68.4v0.06
			C727.86,630.85,728.1,639.29,728.24,647.13z"/>
		
			<linearGradient id="SVGID_3_" gradientUnits="userSpaceOnUse" x1="356.9428" y1="713.5082" x2="225.4203" y2="713.8704" gradientTransform="matrix(1 0 0 1 360 0)">
			<stop  offset="0" style="stop-color:#84101D"/>
			<stop  offset="1" style="stop-color:#BC1C2C"/>
		</linearGradient>
		<path class="st11" d="M671.44,700.08l-49.39,27.25c-0.42-3.68-0.83-7.35-1.27-11.02l-0.4-3.46L671.44,700.08z"/>
	</g>
	<path class="st5" d="M752.39,290.51c-0.77,35.79-1.57,71.56-2.34,107.35c-0.49,22.67-0.98,45.35-1.46,68
		c-0.35,15.91-0.67,31.82-1.02,47.73c-0.81,37.6-1.63,75.2-2.44,112.8c-6.41,2.77-16.13,6.51-28.34,9.44
		c-27.59,6.69-40.61,2.77-81.24,1.89c-50.28-1.06-59.09,4.35-92.6-1.89c-15.3-2.85-27.65-6.61-35.89-9.44
		c-0.16-1.3-0.31-3.5-0.49-6.47c-1.14-18.27-3.03-66.07-5.01-119.92c-0.51-14.26-1.04-28.93-1.57-43.6
		c-2.5-70.85-4.86-141.35-5.66-162.28c-0.31-8,5.03-15.1,12.78-17.11c16.48-4.21,35.36-8.14,56.34-10.99v-0.02
		c2.16-0.28,4.33-0.57,6.55-0.83c14.06-1.73,28.99-2.95,44.74-3.44c19.78-0.63,38.41-0.02,55.75,1.4c1.26,0.1,2.52,0.2,3.76,0.33
		c24.48,2.18,46.25,5.94,64.82,10.11C746.98,275.35,752.58,282.41,752.39,290.51z"/>
	<path class="st6" d="M750.88,398.27c-1.64,76.19-3.29,152.37-4.93,228.54c-6.41,2.76-16.14,6.5-28.34,9.45
		c-27.59,6.69-40.61,2.76-81.25,1.89c-50.28-1.06-59.08,4.35-92.59-1.89c-15.31-2.85-27.66-6.61-35.9-9.45
		c-0.15-1.3-0.3-3.5-0.49-6.48c185.87,7.58,211.92-5.72,214.01-14.3c0.77-3.15,0-5.67,0-5.67c-5.61-18.42-66.95-11-68.02-18.89
		c-0.62-4.54,19.77-6.14,35.9-20.78c15.58-14.14,19.33-33.31,22.67-52.91c5.15-30.18,10.99-70.96,15.12-120.93L750.88,398.27z"/>
	<path class="st6" d="M864.17,460.34c0,0-43.46,37.45-113.37,20.6c-10.08-27.73-20.15-55.45-30.23-83.18
		c-0.92-16.03,0.32-29.56,1.89-39.68c2.04-13.13,5.14-22.61,11.34-41.57c0,0,3.04-9.3,3.71-9.13c1.58,0.42-14.66,65.06-3.71,79.94
		c13.23,17.99,30.23-61.37,35.9-40.59c5.92,21.71-19.24,53.06-11.34,71.8c4.15,9.83,14.58,9.8,58.57,24.56
		C837.57,450.03,854.01,456.32,864.17,460.34z"/>
	<path class="st6" d="M674.26,263.45c-8.2,11.48-24.68,29.77-49.83,34.87c-6.76,1.36-28.51,5.78-42.73-6.1
		c-5.01-4.17-7.63-9.16-8.14-10.17c-3.07-6-3.76-12.02-3.56-16.89c14.06-1.73,28.99-2.95,44.74-3.44
		c19.78-0.63,38.41-0.02,55.75,1.4C671.76,263.22,673.02,263.32,674.26,263.45z"/>
	<path class="st6" d="M788.59,344.85c-5.79,33.95-12.04,52.02-17.01,62.35c-1.33,2.77-2.59,5.03-1.89,5.67
		c2.99,2.71,40.56-25.15,35.9-43.46c-1.13-4.43-3.96-5.27-7.56-15.12c-3.13-8.54-3.59-15-5.67-15.12
		C791.56,339.14,790.31,340.04,788.59,344.85z"/>
	<path class="st7" d="M651.31,554.48c0,0-7.29-0.72-25.22,2.8c-17.93,3.51-40.31,1.48-32.18,9.62c8.14,8.14,20.35,4.07,28.48,8.14
		C630.54,579.1,649.71,574.62,651.31,554.48z"/>
	<g>
		<path class="st12" d="M665.2,137.79c-1.51,14.91-9.83,31.29-23.22,40.86c-1.61,1.16-3.3,2.21-5.06,3.16
			c-18.51,9.91-42.49,6.03-58.06-5.08c-6.63-4.73-11.73-10.78-14.23-17.64c-1.61-4.42-3.16-11.98,0-22.72
			c-1.34,0-11.5-0.08-16.73-7.54c-5.18-7.44-1.57-16.65,0.21-21.38c2.4-6.4,6.98-12.58,12.95-16.9c4.61-3.3,10.06-5.49,15.97-5.82
			c5.31-0.29,9.67,0.99,12.39,2.07c-11.57,9.58-14.29,12.04-14.44,12.39c0.31,0,5.29-4.73,12.37-8.26c3.9-1.94,16.32-8.1,30.98-4.13
			c13.18,3.57,20.47,13.24,22.72,16.52c10.93,2.25,16.11,7.17,18.59,10.33C664.44,119.75,666.15,128.49,665.2,137.79z"/>
		<path class="st12" d="M665.2,137.79c-1.51,14.91-9.83,31.29-23.22,40.86c-16.63,3.14-39.84,1.53-63.12-1.92
			c-6.63-4.73-11.73-10.78-14.23-17.64c-1.61-4.42-3.16-11.98,0-22.72c-1.34,0-11.5-0.08-16.73-7.54
			c-5.18-7.44-1.57-16.65,0.21-21.38c2.4-6.4,6.98-12.58,12.95-16.9c-4.13,9.44-6.28,22.58,11.84,25.16c0,0,22.72-26.85,47.51-10.33
			c24.79,16.52,16.52,22.72,16.52,22.72S658.69,120.85,665.2,137.79z"/>
		<path class="st13" d="M661.76,263.14c-4.76,6.43-14.07,16.88-29.19,22.97c-7.86,3.17-25.02,10.09-39.97,1.57
			c-6.87-3.92-10.78-9.68-12.79-13.28c0.09-3.9,0.19-7.8,0.28-11.71l0.65-25.76l0.26-10.67L629,176.4c5.77-6,15.92-2.68,17.03,5.57
			C651.27,209.03,656.52,236.08,661.76,263.14z"/>
		<path class="st7" d="M630.76,222.24c-2.52,5.71-7.19,14.29-15.64,22.36c-13.34,12.74-28.25,16.72-35.02,18.08l0.65-25.76
			c1.99-1.01,3.2-1.58,3.2-1.58C599.55,230.98,615.16,226.61,630.76,222.24z"/>
		<path class="st13" d="M647.25,202.46c-2.42,16.01-17.14,28.05-28.92,33.05c-0.95,0.41-1.92,0.76-2.87,1.12
			c-9.42,3.26-18.44,3.12-21.91,3.02c-4.11-0.1-9.77-0.27-14.46-2.07c-18.09-6.94-21.67-38.29-22.72-47.51
			c-2.91-25.57,4.32-46.89,10.33-59.9c-0.35,2.04-0.91,7.04,2.07,10.33c1.14,1.24,4.34,4.01,16.52,2.07
			c16.85-2.69,22.06-10.76,35.11-10.33c0.56,0.02,1.09,0.04,1.61,0.1c3.78,0.31,6.82,1.26,8.72,1.96
			c-1.2,10.64,0.64,17.14,2.07,20.65c0.5,1.2,1.43,3.35,2.25,5.02c2.07,4.19,3.74,6.67,6.01,11.5
			C643.53,176.78,649.23,189.3,647.25,202.46z"/>
		<path class="st13" d="M638.99,167.34c0,0,10.15-7.25,15.87-3.53c1.92,1.25,2.6,3.19,2.72,3.53c1.93,5.45-3.6,11.68-6.97,15.49
			c-2.19,2.47-5.76,5.9-11.15,8.92C639.3,183.62,639.14,175.48,638.99,167.34z"/>
		<path class="st7" d="M568.83,206.39c0.44,0.76,2.99,4.97,8.26,6.2c5.2,1.21,9.25-1.37,10.33-2.07c4.39-2.8,5.83-7.06,6.2-8.26
			c-3.34,1.58-8.27,3.43-14.46,4.13C575.16,206.85,571.64,206.71,568.83,206.39z"/>
		<path class="st0" d="M593.61,202.26c0,0-10.33,12.39-24.79,4.13C568.83,206.39,587.42,204.33,593.61,202.26z"/>
		<path class="st7" d="M641.68,171.68c0,0,8.91-7.09,11.15-3.54c2.24,3.54-8.92,16.93-8.92,16.93S646.14,173.91,641.68,171.68z"/>
		<g>
			<g>
				<path class="st12" d="M606.84,164.83c-2.23-3-5.56-5.08-9.29-5.62c-1.96-0.28-4.02-0.13-5.93,0.43
					c-0.68,0.2-1.34,0.44-1.99,0.71c-0.25,0.11-0.49,0.22-0.74,0.34c-0.14,0.07-0.77,0.4-0.22,0.1c-0.78,0.43-1.74,0.42-2.31-0.37
					c-0.47-0.65-0.42-1.87,0.37-2.3c3.44-1.88,7.43-2.73,11.33-2.17c4.57,0.66,8.7,3.26,11.44,6.95
					C610.78,164.6,608.1,166.53,606.84,164.83L606.84,164.83z"/>
			</g>
			<g>
				<path class="st12" d="M573.94,159.94c-3.23-1.88-7.12-2.48-10.76-1.51c-1.92,0.51-3.75,1.46-5.28,2.72
					c-0.55,0.45-1.06,0.93-1.55,1.44c-0.19,0.2-0.37,0.4-0.54,0.6c-0.1,0.12-0.55,0.67-0.16,0.18c-0.55,0.7-1.43,1.06-2.27,0.57
					c-0.69-0.41-1.12-1.56-0.57-2.26c2.42-3.08,5.75-5.43,9.56-6.45c4.46-1.19,9.28-0.43,13.25,1.88
					C577.48,158.18,575.78,161.01,573.94,159.94L573.94,159.94z"/>
			</g>
			<g>
				<path class="st13" d="M578.29,170.1c-0.83,0.08-1.14,4.07-3.76,8.71c0,0,0,0,0,0c-0.05,0.09-1.41,2.46-2.51,5.8
					c-0.65,1.98-0.78,3.01-0.34,3.99c0.65,1.45,2.2,2.02,2.82,2.25c2.09,0.77,4.67,0.48,6.06-0.48
					C585.78,186.78,580.04,169.93,578.29,170.1z"/>
				<g>
					<path class="st7" d="M577.23,169.71c-0.93,2.95-2.12,5.77-3.63,8.46c-1.23,2.19-2.24,4.55-2.92,6.96
						c-0.34,1.23-0.59,2.52-0.11,3.75c0.51,1.3,1.61,2.17,2.84,2.74c2.44,1.14,5.23,0.91,7.62-0.24c1.3-0.63,0.35-2.66-0.96-2.03
						c-1.91,0.92-4.12,1.11-6.03,0.09c-1-0.53-1.59-1.35-1.46-2.49c0.16-1.43,0.79-2.88,1.33-4.2c0.63-1.55,1.4-2.98,2.19-4.44
						c1.34-2.5,2.41-5.11,3.26-7.81C579.78,169.11,577.67,168.32,577.23,169.71L577.23,169.71z"/>
				</g>
			</g>
			<ellipse class="st12" cx="595.5" cy="171.5" rx="2.5" ry="4.5"/>
			<ellipse class="st12" cx="564.5" cy="171.5" rx="2.5" ry="4.5"/>
		</g>
	</g>
	<path class="st13" d="M518.63,383.77c-2.73,10.8-6.78,26.29-12.21,44.76c-24.52,83.3-39.33,99.23-50.87,107.84
		c-12.31,9.2-26.21,14.06-32.55,16.28c-15.3,5.35-25.39,8.89-32.55,4.07c-1.77-1.18-7.04-5.35-8.14-34.59c-0.1-2.79-0.2-5.43-0.28-8
		c-0.39-12.84-0.28-23.13,2.32-34.73c5.62-25.03,19.37-40.71,34.59-59c15.46-18.6,37.68-46.17,65.11-83.42
		c9.73,13.14,19.43,26.29,29.14,39.43C515.01,378.87,516.82,381.31,518.63,383.77z"/>
	<path class="st13" d="M870.89,496.09c-0.04,0.33-0.1,0.9-0.26,1.63c-0.96,4.48-3.42,7.35-4.07,8.14
		c-3.95,4.86-8.42,16.89-10.17,20.35c-7.75,15.32-45.78,28.16-52.9,30.52c-26.08,8.65-47.22,13.35-107.84,26.45
		c-0.53,0.12-1.2,0.26-1.97,0.43c-5.05,1.1-14.61,3.15-17.99,3.89c-0.02-0.06-0.04-0.16-0.08-0.26c-0.69-2.77-4.74-18.41-5.21-20.2
		c-1.75-6.82-3.52-13.65-5.27-20.47c0.41-0.31,0.83-0.59,1.24-0.87c46.57-33.04,86.57-55.36,112.35-66.47
		c6.78-2.93,12.55-5.07,17.21-6.43c5.11-1.49,20.83-8.08,40.55-5.66c8,0.98,22.63,2.97,30.07,14.32c0.2,0.31,0.51,0.77,0.83,1.34
		c0.49,0.79,1.06,1.81,1.61,2.99C870.26,488.52,871.36,492.18,870.89,496.09z"/>
	<g>
		<g>
			
				<ellipse transform="matrix(0.7959 -0.6054 0.6054 0.7959 -56.0654 329.0991)" class="st12" cx="460.09" cy="247.71" rx="35.55" ry="31.69"/>
			<path class="st14" d="M455,263c-2.84-0.63-14.77-3.27-21-13c-3.2-5.01-3.86-10.26-4.13-14.39c-5.78,11.06-5.51,24.13,1.85,33.82
				c10.59,13.93,31.85,15.58,47.48,3.69c5.58-4.25,9.68-9.65,12.18-15.47C479.87,262.63,466.7,265.59,455,263z"/>
			<path class="st12" d="M547.29,361.15l-0.12,0.09c-7.34,5.58-17.91,4.14-23.49-3.19l-58.49-76.9c-5.58-7.34-4.14-17.91,3.19-23.49
				l0.12-0.09c7.34-5.58,17.91-4.14,23.49,3.19l58.49,76.9C556.07,345,554.63,355.57,547.29,361.15z"/>
			<path class="st14" d="M485,295c-10.91-15.53-15.62-27.88-19.43-34.56c-4.6,5.85-4.9,14.33-0.2,20.51l58.49,76.9
				c5.58,7.34,16.15,8.77,23.49,3.19l0.12-0.09c0.98-0.74,1.84-1.58,2.6-2.48C524.34,343.45,497.61,312.94,485,295z"/>
			<path class="st15" d="M518.2,277.12l-45.4,34.53c-7.28,5.54-17.78,4.11-23.32-3.17l-7.2-9.47c-5.54-7.28-4.11-17.78,3.17-23.32
				l45.4-34.53c7.28-5.54,17.78-4.11,23.32,3.17l7.2,9.47C526.91,261.08,525.49,271.58,518.2,277.12z"/>
			<path class="st16" d="M488,289c-11.01,3.53-25.25,8.1-39,2c-4.22-1.87-6.99-4.13-9.3-5.92c-1.3,4.82-0.46,10.17,2.78,14.43
				l7.2,9.47c5.54,7.28,16.03,8.71,23.32,3.17l45.4-34.53c3.36-2.56,5.46-6.17,6.21-10.03C512.33,280.7,492.79,287.46,488,289z"/>
		</g>
		<g>
			<defs>
				<path id="background_2_" d="M740.12,107.93c78.61,46.85,108.13,125.18,116,147c32.72,90.71,11.97,170.59,3,199
					c-34.99,110.84-119.94,164.84-143,179c-26.13,16.05-106.17,65.21-211,48c-7.05-1.16-154.46-27.8-210-157
					c-9.16-21.31-42.45-98.75-6-169c25.85-49.83,81.44-85.73,133-96c37.04-7.38,55.73,1.71,79-16c26.43-20.11,17.39-43.29,43-86
					c7.94-13.25,39.44-65.77,92-77C678.09,70.96,714.15,92.45,740.12,107.93z"/>
			</defs>
			<clipPath id="background_4_">
				<use xlink:href="#background_2_"  style="overflow:visible;"/>
			</clipPath>
			<path class="st17" d="M644.7,742.26c-1.05-23.9-1.81-41.16-0.22-49.02c0.22-1.18,0.02-7.42-0.18-13.46
				c-0.15-4.65-0.33-9.92-0.44-15.7c-3.37-17.85-11.48-29.27-21.74-43.72c-2.03-2.87-4.14-5.83-6.28-8.96
				c-15.25-22.24-26.8-44.26-32.06-56.36c-9.95-22.88-10.29-38.47-10.77-60.05c-0.42-19.14-0.95-42.95-8.23-81.44
				c-6.57-34.77-12.8-50.42-24.67-62.01c-10.36-10.12-23.64-15.98-39.48-17.43l0.35-5.46c16.84,1.54,31.02,7.83,42.15,18.71
				c12.8,12.5,19.42,28.92,26.26,65.05c7.37,39,7.91,63.11,8.34,82.48c0.48,21.64,0.8,35.94,10.26,57.71
				c5.16,11.87,16.52,33.5,31.54,55.41c2.13,3.1,4.21,6.04,6.23,8.88c10.29,14.5,19.17,27.02,22.76,46.32l0.05,0.52
				c0.11,5.84,0.28,11.17,0.44,15.87c0.3,9.06,0.41,13.15,0.06,14.92c-1.43,7.11-0.69,24.05,0.34,47.5
				C653.4,833.08,648.66,832.57,644.7,742.26z"/>
		</g>
	</g>
	<path class="st7" d="M568.35,309.53c0,0-11.06,35.58-17.16,29.48c-6.1-6.1-4.07-10.17-4.07-10.17s-6.1,10.17-10.17,6.1
		c-4.07-4.07-3.68-8.27-3.68-8.27s-14.63,2.16-14.63-8.01c0-10.17,10.17-40.69,14.24-34.59
		C536.94,290.18,561.1,308.54,568.35,309.53z"/>
	<path class="st13" d="M482.01,345.12c0.36-6.39,1.01-13.19,2.03-20.35c1.99-13.88,5.02-26.25,8.33-36.93
		c7.1,1.26,16.39,4.55,27.12,9.31c13.94,6.18,28.64,15.41,31.69,27.62c-3.57,9.23-8.21,19.57-14.24,30.52
		c-6.07,11.02-12.38,20.5-18.31,28.48C506.42,370.89,494.22,358,482.01,345.12z"/>
	<path class="st13" d="M492.18,288.15c0,0,29.57-15.15,36.15-13.68c6.58,1.47,0.48,9.61,0.48,9.61c8.36-4.82,16.34-3.19,18.35,0.62
		c1.91,3.61-1.67,8.97-2.07,9.56c6.52-1.98,12.45,0.18,14.24,4.07c1.04,2.26,0.49,4.68,0,6.1c3.36-0.75,6.61-0.04,8.14,2.03
		c1.93,2.62-0.17,6.59-2.03,10.17c-1.22,2.35-5.72,10.99-14.24,12.21c-1.67,0.24-3.1,0.14-4.07,0
		C528.8,315.27,510.49,301.71,492.18,288.15z"/>
	<g>
		<path class="st7" d="M483.58,337.8c0.67-4.03,1.19-8.09,1.6-12.16c0.34-3.33,0.48-6.68,0.91-10.01c0.92-7.1,3.01-14,4.25-21.05
			c0.31-1.78,0.77-3.49,1.78-5.01c1.05-1.58,2.58-2.66,4.27-3.48c3.16-1.53,6.44-2.96,9.76-4.13c3.74-1.32,7.39-2.67,10.92-4.49
			c2.44-1.25,5.18-2.08,7.85-2.66c0.89-0.19,2.14-0.57,3.05-0.31c1.45,0.41,2.57,2.39,2.42,3.81c-0.15,1.33-1.2,2.58-1.11,3.93
			c0.1,1.51,1.43,1.56,2.51,1.02c2.62-1.31,5.59-2.29,8.59-1.95c3.21,0.37,6.28,2.59,6.03,6.17c-0.11,1.62-0.93,3.11-1.57,4.57
			c-0.39,0.89-0.93,2.05-0.34,2.97c0.46,0.72,1.2,0.65,1.93,0.57c1.1-0.11,2.19-0.26,3.29-0.37c1.32-0.13,2.65-0.23,3.98-0.19
			c1.38,0.04,2.2,0.32,3.28,1.21c1.22,1,2.3,2.34,2.38,3.98c0.06,1.18-0.58,2.63,0.07,3.73c0.48,0.81,1.55,0.79,2.37,0.95
			c1.22,0.23,2.7,0.46,3.72,1.23c2.62,1.99,2.05,5.39,0.71,7.94c-1.03,1.95-2.55,3.34-3.86,5.05c-2.35,3.06-5.2,5.6-8.56,7.49
			c-1.26,0.71-2.57,1.32-3.89,1.92c-1.32,0.6-0.17,2.54,1.14,1.94c3.07-1.39,5.99-2.98,8.58-5.17c2.25-1.9,4.12-4.24,6.03-6.47
			c2.03-2.38,3.81-5.29,3.96-8.49c0.13-2.9-1.51-5.69-4.24-6.79c-1.27-0.51-2.61-0.73-3.95-0.98c-0.07-0.01-0.44-0.13-0.48-0.1
			c-0.12,0.11,0.34,0.54,0.47,0.4c0.03-0.04-0.01-0.27,0-0.33c0.14-0.62,0.18-1.4,0.19-2.04c0.05-3.05-2.55-6.42-5.42-7.36
			c-2.44-0.8-5.42-0.29-7.91-0.01c-0.26,0.03-2.54,0.08-2.64,0.27c0,0,0.76,0.62,0.84,0.58c0.09-0.04,0.23-0.68,0.28-0.8
			c0.3-0.74,0.67-1.46,0.97-2.2c1.34-3.25,1.1-6.58-1.31-9.28c-2.26-2.54-6.22-3-9.4-2.52c-1.37,0.21-2.9,0.48-4.19,1
			c-0.69,0.28-1.32,0.65-1.97,1c0.04-0.02-0.44,0.21-0.45,0.23c0.18,0.13,0.36,0.25,0.54,0.38c0.36,0.51,0.56,0.56,0.59,0.17
			c0.18-0.23,0.26-0.74,0.37-1.03c0.64-1.67,0.99-3.25,0.3-4.97c-0.6-1.49-1.88-3-3.43-3.55c-0.99-0.35-2.11-0.18-3.13-0.03
			c-1.52,0.23-3.01,0.64-4.47,1.09c-3.33,1.03-6.25,2.72-9.45,4.05c-3.64,1.51-7.45,2.57-11.05,4.17c-3.18,1.42-6.93,2.62-9.35,5.24
			c-2.74,2.97-3,6.68-3.75,10.45c-0.8,4.01-1.87,7.96-2.69,11.96c-1.44,7.02-1.64,14.17-2.53,21.26c-0.28,2.2-0.59,4.4-0.95,6.59
			C481.18,338.62,483.35,339.23,483.58,337.8L483.58,337.8z"/>
	</g>
	<path class="st13" d="M693.67,583.6c-2.08,5.74-5.86,13.92-13.08,21.69c-0.22,0.24-0.45,0.49-0.67,0.71
		c-2.67,2.75-5.84,5.55-9.81,8.48c-0.69,0.49-1.42,1.02-2.22,1.57c-7.2,5.01-14.41,9.99-22.24,14.28c-4.27,2.36-8.71,4.5-13.45,6.33
		c-13.39,5.15-13.39-5.15-13.39-5.15s-8.91,7.73-13.39,0c-0.39-0.67-0.59-1.42-0.63-2.2c-0.28-5.11,6.19-12.09,11.05-16.56
		c2.44-2.24,4.46-3.87,5.05-4.35c-0.63,0.37-2.93,1.69-6.1,3.52c-7.28,4.21-19.06,11.03-24.97,14.43c-8.93,5.17-20.08,5.17-20.08,0
		c0-3.32,19.51-16.32,33.35-25.11c6.69-4.25,12.07-7.55,13.25-8.28c-1.26,0.61-7.32,3.5-14.81,6.69
		c-12.88,5.47-29.97,11.78-34.02,8.65c-3.54-2.73,10.34-11.9,24.21-19.96c12.43-7.22,24.86-13.55,24.86-13.55
		c16.6-9.71,33.19-19.41,49.79-29.12c2.97-1.75,5.96-3.48,8.93-5.23c3.38,3.07,9.89,9.85,14.24,21.16c1.77,4.6,2.83,8.99,3.42,12.92
		C693.49,577.98,693.67,581.07,693.67,583.6z"/>
	<path class="st13" d="M518.63,383.77c-2.73,10.8-6.78,26.29-12.21,44.76c-24.52,83.3-39.33,99.23-50.87,107.84
		c-12.31,9.2-26.21,14.06-32.55,16.28c-15.3,5.35-25.39,8.89-32.55,4.07c-1.77-1.18-7.04-5.35-8.14-34.59c-0.1-2.79-0.2-5.43-0.28-8
		c17.5,6.53,49.85,12.8,67.43-6.25c20.27-21.95,53.12-104.13,63.73-131.48C515.01,378.87,516.82,381.31,518.63,383.77z"/>
	<g>
		<path class="st7" d="M625.93,566.53c-8.68,5.44-17.64,10.36-26.46,15.55c-5.22,3.07-10.57,5.9-15.78,8.96
			c-3.23,1.9-6.39,3.93-9.38,6.2c-2.19,1.67-4.68,3.3-6.39,5.49c-2.62,3.38-0.61,8.39,3.63,9.02c3.42,0.5,6.85-0.85,9.94-2.17
			c6.88-2.94,13.71-5.99,20.54-9.04c3.94-1.76,7.89-3.52,11.81-5.32c1.19-0.54,2.38-1.09,3.56-1.65c0.63-0.3,1.45-0.57,1.7-1.29
			c0.18-0.53-0.21-1.29-0.79-1.38c-0.83-0.13-1.58,0.52-2.24,0.93c-1.35,0.84-2.69,1.69-4.04,2.54c-4.14,2.61-8.29,5.2-12.49,7.73
			c-4.25,2.56-8.62,4.91-12.86,7.48c-2.6,1.58-5.16,3.24-7.64,5.01c-2.65,1.89-5.41,3.86-7.6,6.29c-2.17,2.4-4.96,7.04-1.81,9.84
			c1.43,1.27,3.73,1.47,5.55,1.52c2.53,0.08,5.08-0.36,7.52-0.99c7.93-2.04,14.92-6.46,21.76-10.81c4.43-2.82,8.79-5.75,13.13-8.7
			c1.48-1.01,2.95-2.02,4.44-3.01c0.43-0.29,0.87-0.58,1.31-0.86c0.13-0.08,0.31-0.15,0.42-0.25c0.03-0.03,0.12-0.04,0.14-0.08
			c-0.08,0.12-0.76,0.07-0.98-0.05c-0.19-0.32-0.37-0.65-0.56-0.97c-0.01-1.95,0.55-0.71,0.17-0.64c-0.09,0.02-0.24,0.19-0.32,0.26
			c-0.16,0.13-0.79,0.6-1.14,0.86c-1.29,0.97-2.59,1.95-3.87,2.94c-3.15,2.43-6.3,4.93-9.12,7.76c-2.56,2.57-4.68,5.79-5.52,9.36
			c-0.98,4.18,2.19,7.43,5.94,8.67c2.33,0.77,4.81,0.16,6.92-0.94c0.95-0.49,1.84-1.1,2.7-1.75c0.33-0.25,0.69-0.49,0.99-0.77
			c0.32-0.3,0.45-0.06-0.13-0.12c-0.27-0.11-0.53-0.22-0.8-0.33c-0.43-0.42-0.17-0.44-0.14-0.09c0.02,0.16,0.08,0.33,0.11,0.48
			c0.11,0.48,0.23,0.95,0.38,1.42c0.4,1.24,0.98,2.44,1.89,3.38c2.43,2.53,6.83,2.28,10,1.8c3.79-0.57,7.45-2.05,10.81-3.86
			c3.83-2.07,7.58-4.3,11.35-6.47c5.65-3.26,11.33-6.54,16.64-10.34c4.83-3.45,8.99-7.46,12.67-12.13
			c5.27-6.69,9.13-14.15,12.55-21.91c0.58-1.31-1.36-2.46-1.94-1.14c-4.75,10.79-10.55,21.4-19.48,29.33
			c-7.47,6.62-16.61,11.41-25.22,16.34c-5.75,3.29-11.56,7.19-18.28,8.06c-2.56,0.33-6.32,0.56-7.97-1.85
			c-0.5-0.74-0.8-1.58-1.03-2.43c-0.16-0.59-0.2-1.35-0.53-1.88c-0.94-1.55-2.52,0.22-3.39,0.85c-1.93,1.42-4.39,2.86-6.87,2.35
			c-2.46-0.5-5.19-2.48-5.13-5.21c0.04-1.81,1.22-3.9,2.11-5.51c1.08-1.95,2.69-3.53,4.32-5.03c1.92-1.78,3.94-3.45,5.99-5.07
			c1.7-1.35,3.44-2.66,5.18-3.96c0.71-0.53,2.41-1.37,2.4-2.42c0-0.39-0.21-0.78-0.56-0.97c-0.72-0.41-1.39,0.09-1.98,0.47
			c-0.97,0.62-1.92,1.28-2.87,1.92c-3.22,2.19-6.43,4.38-9.67,6.53c-3.98,2.64-7.99,5.23-12.08,7.67c-2.89,1.72-5.82,3.46-8.92,4.77
			c-3.88,1.64-8.13,2.99-12.37,3.09c-1.48,0.03-4.18,0.13-5.24-1.16c-0.94-1.15-0.22-2.93,0.4-4.03c1.4-2.5,3.73-4.37,5.96-6.11
			c2.4-1.88,4.92-3.61,7.49-5.26c4.11-2.64,8.41-4.96,12.63-7.43c4.66-2.74,9.25-5.59,13.82-8.46c1.7-1.07,3.4-2.14,5.11-3.21
			c0.52-0.32,1.03-0.65,1.55-0.97c0.14-0.08,0.3-0.16,0.43-0.26c0.39-0.31,0.52,0.15-0.6-0.03c-0.26-0.46-0.52-0.92-0.79-1.38
			c0.19-0.57,0.74-0.72,0.16-0.46c-0.31,0.14-0.61,0.3-0.92,0.45c-0.98,0.47-1.96,0.92-2.95,1.37c-3.1,1.42-6.21,2.82-9.33,4.21
			c-6.96,3.11-13.93,6.21-20.92,9.24c-2.41,1.05-4.34,2-6.91,2.64c-1.68,0.42-3.9,0.87-5.5-0.04c-1.48-0.84-2.07-3.06-1.21-4.51
			c1.32-2.23,4.09-3.89,6.1-5.42c2.74-2.09,5.63-3.97,8.59-5.73c5.07-3.02,10.3-5.73,15.39-8.72c9.21-5.42,18.58-10.57,27.64-16.25
			C628.29,567.7,627.16,565.76,625.93,566.53L625.93,566.53z"/>
	</g>
	<g>
		<path class="st7" d="M619.57,631.97c6.67-5,13.33-10,20-15c1.14-0.86,0.02-2.81-1.14-1.94c-6.67,5-13.33,10-20,15
			C617.29,630.89,618.41,632.84,619.57,631.97L619.57,631.97z"/>
	</g>
</g>
<g id="camera">
	<polygon class="st18" points="351.85,633.35 312.32,632.94 312.66,590.53 352.18,590.94 	"/>
	<polygon class="st19" points="351.85,633.35 312.32,632.94 312.43,619.36 351.95,619.77 	"/>
	<path class="st15" d="M399.39,641.16l-47.4-0.5c-6.09-0.06-10.99-5.57-10.94-12.31l0.25-31.17c0.05-6.74,5.05-12.16,11.15-12.09
		l47.41,0.5c6.09,0.06,10.99,5.57,10.94,12.31l-0.25,31.17C410.48,635.81,405.49,641.23,399.39,641.16z"/>
	<path class="st20" d="M340.91,627.74c23.84,10.73,54.37-4.4,69.52-5.04l-0.04,5.42c-0.05,6.86-4.95,12.38-10.94,12.32l-47.81-0.5
		C345.75,639.87,341.02,634.44,340.91,627.74z"/>
	<path class="st15" d="M535.65,687.2l-133.24-1.4c-12.61-0.13-22.84-11.64-22.73-25.58l0.71-88.94
		c0.11-13.96,10.54-25.27,23.17-25.14l133.24,1.4c12.61,0.13,22.84,11.64,22.73,25.58l-0.71,88.94
		C558.71,676.02,548.28,687.33,535.65,687.2z"/>
	<path class="st18" d="M504.02,656.16l-62.48-0.66c-12.61-0.13-22.84-11.64-22.73-25.58l0.24-30.44
		c0.11-13.96,10.54-25.27,23.17-25.14l62.48,0.66c12.61,0.13,22.84,11.64,22.73,25.58l-0.24,30.44
		C527.08,644.98,516.65,656.29,504.02,656.16z"/>
	<polygon class="st15" points="319.79,637.36 283.98,656 284.73,561.67 320.23,582.52 	"/>
	<path class="st20" d="M284.16,633.48c15.61-0.92,27.23-6.39,35.74-9.29l-0.11,13.17L283.98,656L284.16,633.48z"/>
	<path class="st21" d="M368.72,522.47c-0.04,5.6-6.09,10.09-13.49,10.01c-7.41-0.08-13.37-4.68-13.33-10.29
		c0.04-5.6,6.09-10.09,13.49-10.01C362.79,512.25,368.76,516.86,368.72,522.47z"/>
	<path class="st21" d="M565.4,524.53l-57.72-0.61c-6.33-0.07-11.46-5.84-11.4-12.84l0-0.48c0.06-7,5.29-12.68,11.62-12.61
		l57.72,0.61c6.33,0.07,11.46,5.84,11.4,12.84l0,0.48C576.96,518.92,571.73,524.6,565.4,524.53z"/>
	<path class="st20" d="M379.75,660.35c24.12,10,56.03,7.39,106.53,3.25c29.71-2.43,44.86-3.85,58.77-13.64
		c5.97-4.2,10.38-8.61,13.97-12.53l-0.19,23.31c-0.11,14.21-10.34,25.73-22.73,25.6l-134.09-1.41
		C390.06,684.8,380.32,673.87,379.75,660.35z"/>
	<path class="st18" d="M386.09,520.83l-30.57,2.99c-2.17,0.21-4.09-1.37-4.31-3.54l-0.03-0.27c-0.21-2.17,1.37-4.09,3.54-4.31
		l30.57-2.99c2.17-0.21,4.09,1.37,4.31,3.54l0.03,0.27C389.84,518.69,388.25,520.62,386.09,520.83z"/>
	<path class="st18" d="M392.01,549.08l-10.85-28.74c-0.77-2.04,0.26-4.31,2.3-5.08l0.26-0.1c2.04-0.77,4.31,0.26,5.08,2.3
		l10.85,28.74c0.77,2.04-0.26,4.31-2.3,5.08l-0.26,0.1C395.06,552.14,392.78,551.11,392.01,549.08z"/>
	<path class="st18" d="M488.86,546.26l7.15-29.87c0.51-2.12,2.63-3.42,4.75-2.92l0.27,0.06c2.12,0.51,3.42,2.63,2.92,4.75
		l-7.15,29.87c-0.51,2.12-2.63,3.42-4.75,2.92l-0.27-0.06C489.66,550.5,488.36,548.37,488.86,546.26z"/>
</g>
<g id="cup2">
	<g>
		<g>
			<path class="st5" d="M440.76,596.71c-1.12,7.35-2.23,14.7-3.35,22.05c-2.78,18.31-5.55,36.61-8.33,54.92
				c-0.04,0.26-0.08,0.54-0.12,0.8c-1.18,7.74-7.33,13.77-15.1,14.81c-4.63,0.62-9.75,1.02-15.32,1
				c-5.49-0.01-10.56-0.43-15.14-1.06c-0.78-0.11-1.55-0.27-2.3-0.48c-6.65-1.84-11.71-7.43-12.74-14.39l-11.53-77.82
				c1.32-0.97,4.35-1.85,8.65-2.59c1.74-0.3,3.69-0.58,5.81-0.82c7.39-0.85,16.91-1.36,27.32-1.36l0.37,0
				C419.8,591.86,437.08,593.97,440.76,596.71z"/>
			<path class="st6" d="M429.08,673.69c-0.04,0.26-0.08,0.54-0.12,0.8c-1.18,7.74-7.33,13.77-15.1,14.81
				c-4.63,0.62-9.75,1.02-15.32,1c-5.49-0.01-10.56-0.43-15.14-1.06c-7.76-1.07-13.89-7.12-15.03-14.87l-11.53-77.82
				c1.32-0.97,4.35-1.85,8.65-2.59c2.39,13.43,13.3,65.68,39.48,74.45C412.45,670.94,420.78,672.6,429.08,673.69z"/>
			<g>
				<path class="st0" d="M356.83,596.73c0,0.11,0.02,0.19,0.06,0.3c0.02,0.09,0.06,0.19,0.13,0.28c0.02,0.04,0.06,0.06,0.09,0.11
					c0.06,0.06,0.13,0.13,0.24,0.21c3.12,2.79,20.48,4.94,41.45,4.98c1.22,0,2.44,0,3.64-0.02c1.88-0.02,3.73-0.06,5.52-0.1
					c16.66-0.49,29.6-2.35,32.28-4.72c0.09-0.06,0.17-0.15,0.24-0.21c0.02-0.04,0.06-0.06,0.06-0.11c0.09-0.09,0.13-0.19,0.15-0.28
					c0.04-0.11,0.06-0.19,0.06-0.3c0-2.66-13.01-4.93-30.74-5.66c-2.06-0.07-4.18-0.14-6.34-0.16c-1.58-0.02-3.21-0.05-4.86-0.05
					C375.64,590.96,356.84,593.54,356.83,596.73z"/>
				<path class="st0" d="M357.33,597.63c3.11-2.78,20.5-4.87,41.47-4.84c20.98,0.04,38.36,2.2,41.46,4.98
					c0.33-0.29,0.5-0.59,0.5-0.89c0.01-3.21-18.77-5.84-41.95-5.88c-23.17-0.04-41.96,2.53-41.97,5.73
					C356.84,597.04,357.01,597.34,357.33,597.63z"/>
			</g>
			<path class="st6" d="M437.41,618.76c-2.78,18.31-5.55,36.61-8.33,54.92c-0.04,0.26-0.08,0.54-0.12,0.8
				c-1.18,7.74-7.33,13.77-15.1,14.81c-4.63,0.62-9.75,1.02-15.32,1c-5.49-0.01-10.56-0.43-15.14-1.06
				c-0.78-0.11-1.55-0.27-2.3-0.48c15.45-1.73,30.33-5.22,35.7-12.12c12.8-16.4,11.96-60.18,11.96-60.18L437.41,618.76z"/>
			<g>
				<path class="st6" d="M442.4,666.21l-13.72-0.02c-2.27,0-4.1-1.84-4.1-4.11c0-2.27,1.84-4.1,4.11-4.1l13.72,0.02
					c5.38,0.01,10.28-3.36,12.2-8.38l4.32-11.32c1.55-4.06,1.03-8.45-1.43-12.03c-2.46-3.58-6.37-5.64-10.72-5.65l-14.37-0.03
					c-2.27,0-4.1-1.84-4.1-4.11c0-2.27,1.84-4.1,4.11-4.1l14.37,0.02c6.98,0.01,13.52,3.46,17.47,9.21
					c3.96,5.76,4.83,13.09,2.34,19.61l-4.32,11.32C459.16,660.74,451.17,666.23,442.4,666.21z"/>
			</g>
		</g>
	</g>
</g>
</svg>
